<svg width="100" height="100" viewBox="0 0 100 100" fill="none" xmlns="http://www.w3.org/2000/svg">
<rect width="100" height="100" rx="4" fill="#FFF0F0"/>
<path d="M61.8882 52.0979C61.8882 45.6052 56.606 40.323 50.1133 40.323C37.6346 40.4926 33.8953 57.0539 44.8738 62.6273C38.5886 64.8062 34.0566 70.771 34.0566 77.7886C34.0566 79.5594 35.4971 80.9999 37.268 80.9999H62.9587C64.7295 80.9999 66.17 79.5594 66.17 77.7886C66.17 70.771 61.6381 64.8062 55.3529 62.6273C59.22 60.6949 61.8882 56.707 61.8882 52.0979ZM64.0291 77.7886C64.0291 78.3792 63.5488 78.8591 62.9587 78.8591H59.7473V76.7182C59.7473 76.1265 59.268 75.6477 58.6769 75.6477C58.0857 75.6477 57.6065 76.1265 57.6065 76.7182V78.8591H42.6202V76.7182C42.6202 76.1265 42.1409 75.6477 41.5498 75.6477C40.9586 75.6477 40.4793 76.1265 40.4793 76.7182V78.8591H37.268C36.6779 78.8591 36.1975 78.3792 36.1975 77.7886C36.1975 71.585 40.2797 66.3199 45.8979 64.5295C46.6789 69.315 53.5494 69.3119 54.3287 64.5295C59.9469 66.3199 64.0291 71.585 64.0291 77.7886ZM47.9906 64.0522C49.3705 63.8189 50.8562 63.8189 52.2361 64.0522C52.0014 66.6323 48.2245 66.6307 47.9906 64.0522ZM50.1133 61.7319C44.8013 61.7319 40.4793 57.4104 40.4793 52.0979C41.0089 39.3171 59.2198 39.3208 59.7473 52.098C59.7473 57.4104 55.4253 61.7319 50.1133 61.7319Z" fill="#E4322B"/>
<path d="M70.1013 40.6017C69.454 39.972 68.2812 40.492 68.3106 41.3935V45.6753H62.9584C61.5533 45.6986 61.55 47.7923 62.9585 47.8162H69.3811C69.9722 47.8162 70.4515 47.3369 70.4515 46.7458V43.8135L79.5644 52.098L70.4515 60.3824V57.4502C70.4515 56.8585 69.9722 56.3798 69.3811 56.3798H62.9584C61.5532 56.4028 61.55 58.4971 62.9585 58.5207H68.3106V62.8024C68.2831 63.7015 69.4508 64.2237 70.1013 63.5948L81.8762 52.8904C82.0994 52.6876 82.2264 52.4001 82.2264 52.098C82.2264 51.7959 82.0994 51.5084 81.8762 51.3056L70.1013 40.6017Z" fill="#E4322B"/>
<path d="M39.4089 33.9004H43.6907V39.2526C43.714 40.6577 45.8077 40.661 45.8316 39.2525V32.8299C45.8316 32.2388 45.3523 31.7595 44.7611 31.7595H41.8289L50.1134 22.6466L58.3978 31.7595H55.4656C54.8745 31.7595 54.3952 32.2388 54.3952 32.8299V39.2526C54.4185 40.6577 56.5121 40.661 56.5361 39.2525V33.9004H60.8178C61.717 33.9295 62.2402 32.7567 61.6096 32.1096L50.9052 20.3348C50.4996 19.8884 49.7271 19.8884 49.3215 20.3348L38.6171 32.1097C37.9914 32.7554 38.5051 33.931 39.4089 33.9004Z" fill="#E4322B"/>
<path d="M30.1251 63.5948C30.7749 64.2225 31.9445 63.7029 31.9158 62.8024V58.5207H37.268C38.6732 58.4977 38.6764 56.4033 37.268 56.3798H30.8454C30.2542 56.3798 29.7749 56.8585 29.7749 57.4502V60.3824L20.662 52.098L29.7749 43.8135V46.7457C29.7749 47.3369 30.2542 47.8162 30.8454 47.8162H37.268C38.6732 47.7928 38.6764 45.6993 37.268 45.6753H31.9158V41.3935C31.9445 40.4935 30.7718 39.9714 30.1251 40.6017L18.3502 51.3056C18.127 51.5084 18 51.7959 18 52.098C18 52.4001 18.127 52.6876 18.3502 52.8904L30.1251 63.5948Z" fill="#E4322B"/>
</svg>
