<svg width="100" height="100" viewBox="0 0 100 100" fill="none" xmlns="http://www.w3.org/2000/svg">
<rect width="100" height="100" rx="4" fill="#FFF0F0"/>
<path d="M50.0147 19.1799C49.7941 19.1803 49.5791 19.2492 49.3995 19.3771C49.2198 19.5051 49.0845 19.6857 49.0121 19.894L47.1087 25.3614L41.3195 25.4795C41.0995 25.4846 40.8866 25.5578 40.7099 25.6889C40.5333 25.8201 40.4018 26.0029 40.3335 26.2119C40.2651 26.421 40.2634 26.6462 40.3285 26.8563C40.3935 27.0664 40.5222 27.2511 40.6968 27.385L45.3132 30.8868L43.6381 36.4289C43.5753 36.6396 43.5794 36.8646 43.6499 37.0728C43.7204 37.2811 43.8537 37.4623 44.0315 37.5917C44.2093 37.721 44.4229 37.792 44.6428 37.7949C44.8626 37.7978 45.078 37.7325 45.2592 37.6079L50.0147 34.3013L54.766 37.6079C54.9471 37.7341 55.1631 37.8007 55.3838 37.7986C55.6046 37.7964 55.8192 37.7257 55.9979 37.596C56.1766 37.4664 56.3104 37.2844 56.3809 37.0753C56.4514 36.8661 56.4551 36.6402 56.3913 36.4289L54.7162 30.8868L59.3326 27.385C59.5071 27.2511 59.6358 27.0664 59.7009 26.8563C59.766 26.6462 59.7642 26.421 59.6959 26.2119C59.6276 26.0029 59.496 25.8201 59.3194 25.6889C59.1428 25.5578 58.9298 25.4846 58.7099 25.4795L52.9207 25.3614L51.0172 19.894C50.9449 19.6857 50.8095 19.5051 50.6299 19.3771C50.4502 19.2492 50.2352 19.1803 50.0147 19.1799ZM50.0147 23.4746L51.1542 26.7563C51.2254 26.9613 51.3576 27.1396 51.5331 27.2672C51.7087 27.3949 51.9191 27.4658 52.1361 27.4704L55.6087 27.5431L52.8418 29.6396C52.6688 29.7706 52.5401 29.9514 52.4729 30.1577C52.4058 30.364 52.4034 30.586 52.4661 30.7937L53.4707 34.1148L50.6229 32.1325C50.4445 32.0081 50.2322 31.9414 50.0147 31.9414C49.7972 31.9414 49.5849 32.0081 49.4065 32.1325L46.5586 34.1148L47.5633 30.7937C47.626 30.586 47.6236 30.364 47.5564 30.1577C47.4893 29.9514 47.3605 29.7706 47.1875 29.6396L44.4206 27.5431L47.8912 27.4704C48.1082 27.4658 48.3186 27.3949 48.4941 27.2673C48.6696 27.1396 48.8019 26.9613 48.873 26.7563L50.0147 23.4746ZM28.4729 27.0178C28.2533 27.0181 28.0393 27.0871 27.8604 27.2154C27.6816 27.3438 27.5467 27.525 27.4745 27.734L25.8741 32.3753L21.0024 32.4769C20.7829 32.4817 20.5703 32.5552 20.3941 32.6871C20.2179 32.8191 20.0867 33.0031 20.0188 33.2135C19.9508 33.424 19.9495 33.6506 20.0149 33.8618C20.0803 34.0731 20.2092 34.2587 20.3838 34.3928L24.2654 37.3631L22.856 42.0626C22.7918 42.2748 22.7948 42.5019 22.8646 42.7123C22.9344 42.9227 23.0675 43.1059 23.2453 43.2365C23.4232 43.3671 23.637 43.4386 23.857 43.441C24.0771 43.4434 24.2923 43.3766 24.473 43.2499L28.4729 40.4414L32.4728 43.2499C32.6534 43.3766 32.8687 43.4434 33.0887 43.441C33.3087 43.4386 33.5225 43.3671 33.7004 43.2365C33.8783 43.1059 34.0113 42.9227 34.0811 42.7123C34.1509 42.5019 34.1539 42.2748 34.0898 42.0626L32.6804 37.3631L36.562 34.3928C36.7366 34.2587 36.8655 34.0731 36.9309 33.8618C36.9963 33.6506 36.9949 33.424 36.927 33.2135C36.859 33.0031 36.7279 32.8191 36.5516 32.6871C36.3754 32.5552 36.1629 32.4817 35.9434 32.4769L31.0717 32.3753L29.4713 27.734C29.3991 27.525 29.2642 27.3438 29.0853 27.2154C28.9064 27.0871 28.6924 27.0181 28.4729 27.0178ZM71.5274 27.0259C71.3081 27.026 71.0943 27.0947 70.9155 27.2226C70.7366 27.3505 70.6016 27.5313 70.529 27.7399L68.9286 32.3812L64.0569 32.4828C63.8374 32.4876 63.6249 32.5611 63.4487 32.6931C63.2724 32.8251 63.1413 33.009 63.0733 33.2195C63.0054 33.4299 63.004 33.6565 63.0694 33.8678C63.1348 34.0791 63.2637 34.2646 63.4383 34.3988L67.3199 37.3691L65.9105 42.0685C65.8464 42.2807 65.8494 42.5078 65.9192 42.7182C65.989 42.9286 66.122 43.1118 66.2999 43.2424C66.4778 43.373 66.6916 43.4445 66.9116 43.4469C67.1316 43.4493 67.3469 43.3825 67.5275 43.2558L71.5274 40.4474L75.5273 43.2558C75.708 43.3825 75.9232 43.4493 76.1433 43.4469C76.3633 43.4445 76.5771 43.373 76.7549 43.2424C76.9328 43.1118 77.0659 42.9286 77.1357 42.7182C77.2054 42.5078 77.2085 42.2807 77.1443 42.0685L75.7349 37.3691L79.6165 34.3988C79.7911 34.2646 79.92 34.0791 79.9854 33.8678C80.0508 33.6565 80.0495 33.4299 79.9815 33.2195C79.9136 33.009 79.7824 32.8251 79.6062 32.6931C79.43 32.5611 79.2174 32.4876 78.9979 32.4828L74.1262 32.3812L72.5258 27.7399C72.4533 27.5313 72.3182 27.3505 72.1394 27.2226C71.9605 27.0947 71.7467 27.026 71.5274 27.0259ZM28.4729 31.3351L29.3135 33.7782C29.3842 33.9843 29.5158 34.1636 29.6906 34.292C29.8654 34.4204 30.075 34.4917 30.2912 34.4964L32.8547 34.5502L30.8143 36.1091C30.6419 36.2408 30.5136 36.4227 30.4468 36.6301C30.38 36.8376 30.3779 37.0607 30.4407 37.2694L31.1817 39.7457L29.0769 38.2679C28.8996 38.1436 28.6888 38.077 28.4729 38.077C28.2569 38.077 28.0462 38.1436 27.8688 38.2679L25.7641 39.7457L26.5051 37.2694C26.5679 37.0607 26.5657 36.8376 26.4989 36.6301C26.4321 36.4227 26.3039 36.2408 26.1315 36.1091L24.091 34.5502L26.6545 34.4964C26.8708 34.4917 27.0804 34.4204 27.2551 34.292C27.4299 34.1636 27.5615 33.9843 27.6322 33.7782L28.4729 31.3351ZM71.5274 31.3391L72.3681 33.7822C72.4388 33.9883 72.5704 34.1676 72.7451 34.296C72.9199 34.4244 73.1295 34.4957 73.3458 34.5004L75.9093 34.5542L73.8688 36.1152C73.6968 36.2468 73.5688 36.4282 73.502 36.6353C73.4353 36.8423 73.4329 37.065 73.4952 37.2734L74.2362 39.7498L72.1314 38.2718C71.9541 38.1476 71.7433 38.081 71.5274 38.081C71.3115 38.081 71.1007 38.1476 70.9234 38.2718L68.8186 39.7498L69.5596 37.2734C69.622 37.065 69.6196 36.8423 69.5528 36.6353C69.486 36.4282 69.358 36.2468 69.186 36.1152L67.1456 34.5542L69.7091 34.5004C69.9253 34.4957 70.1349 34.4244 70.3097 34.296C70.4845 34.1676 70.6161 33.9883 70.6867 33.7822L71.5274 31.3391ZM48.7713 41.7509C37.9979 41.7509 29.243 50.5091 29.243 61.2855C29.243 66.8272 31.5589 71.8344 35.2729 75.3921C35.3058 75.4284 35.3412 75.4623 35.3788 75.4937C38.8764 78.7944 43.5909 80.82 48.7713 80.82C53.935 80.82 58.6346 78.8067 62.1306 75.5248C62.2128 75.4663 62.2862 75.3964 62.3486 75.3172C66.0193 71.7642 68.3059 66.7884 68.3059 61.2853C68.3059 50.509 59.5447 41.7509 48.7713 41.7509ZM48.7713 43.8765C58.3956 43.8765 66.1783 51.6575 66.1783 61.2855C66.1783 65.6381 64.5889 69.6132 61.9563 72.6625C60.3957 68.8767 57.2284 65.9266 53.2985 64.6253C55.4427 63.1805 56.8583 60.743 56.8583 57.983C56.8583 53.5569 53.2185 49.95 48.7713 49.95C44.3241 49.95 40.6905 53.5569 40.6905 57.983C40.6905 60.743 42.1023 63.1805 44.2442 64.6253C40.3155 65.9268 37.152 68.8779 35.5926 72.6646C32.9601 69.6149 31.3706 65.6396 31.3706 61.2855C31.3706 51.6575 39.147 43.8765 48.7713 43.8765ZM48.7713 52.0755C52.0787 52.0755 54.7328 54.7146 54.7328 57.983C54.7328 61.2514 52.0787 63.8822 48.7713 63.8822C45.4639 63.8822 42.8161 61.2514 42.8161 57.983C42.8161 54.7146 45.4639 52.0755 48.7713 52.0755ZM48.7713 66.0244C54.1961 66.0244 58.7399 69.5045 60.304 74.3314C57.2341 77.0469 53.1987 78.6945 48.7713 78.6945C44.3457 78.6945 40.3105 77.049 37.2428 74.3355C38.805 69.5063 43.345 66.0244 48.7713 66.0244Z" fill="#E4322B"/>
<line x1="40.9847" y1="44.451" x2="56.4209" y2="78.8783" stroke="#E4322B" stroke-width="2"/>
</svg>
