<svg width="136" height="24" viewBox="0 0 136 24" fill="none" xmlns="http://www.w3.org/2000/svg">
<path d="M12.865 2.99616C12.4796 2.33201 11.5205 2.33201 11.1351 2.99616L8.42107 7.67347C8.2307 8.00155 7.90165 8.22544 7.52659 8.28209L2.44027 9.05032C1.58599 9.17935 1.28633 10.258 1.95164 10.8092L5.74073 13.9484C6.09147 14.239 6.25639 14.6973 6.17119 15.1448L5.18002 20.3499C5.02334 21.1727 5.88712 21.812 6.62827 21.4218L11.4177 18.9C11.7822 18.708 12.2179 18.708 12.5824 18.9L17.3718 21.4218C18.113 21.812 18.9768 21.1727 18.8201 20.3499L17.8289 15.1448C17.7437 14.6973 17.9087 14.239 18.2594 13.9484L22.0485 10.8092C22.7138 10.258 22.4141 9.17935 21.5598 9.05032L16.4735 8.28209C16.0985 8.22544 15.7694 8.00155 15.579 7.67347L12.865 2.99616Z" fill="#FF8800"/>
<path d="M40.865 2.99616C40.4796 2.33201 39.5205 2.33201 39.1351 2.99616L36.4211 7.67347C36.2307 8.00155 35.9016 8.22544 35.5266 8.28209L30.4403 9.05032C29.586 9.17935 29.2863 10.258 29.9516 10.8092L33.7407 13.9484C34.0915 14.239 34.2564 14.6973 34.1712 15.1448L33.18 20.3499C33.0233 21.1727 33.8871 21.812 34.6283 21.4218L39.4177 18.9C39.7822 18.708 40.2179 18.708 40.5824 18.9L45.3718 21.4218C46.113 21.812 46.9768 21.1727 46.8201 20.3499L45.8289 15.1448C45.7437 14.6973 45.9087 14.239 46.2594 13.9484L50.0485 10.8092C50.7138 10.258 50.4141 9.17935 49.5598 9.05032L44.4735 8.28209C44.0985 8.22544 43.7694 8.00155 43.579 7.67347L40.865 2.99616Z" fill="#FF8800"/>
<path d="M68.865 2.99616C68.4796 2.33201 67.5205 2.33201 67.1351 2.99616L64.4211 7.67347C64.2307 8.00155 63.9016 8.22544 63.5266 8.28209L58.4403 9.05032C57.586 9.17935 57.2863 10.258 57.9516 10.8092L61.7407 13.9484C62.0915 14.239 62.2564 14.6973 62.1712 15.1448L61.18 20.3499C61.0233 21.1727 61.8871 21.812 62.6283 21.4218L67.4177 18.9C67.7822 18.708 68.2179 18.708 68.5824 18.9L73.3718 21.4218C74.113 21.812 74.9768 21.1727 74.8201 20.3499L73.8289 15.1448C73.7437 14.6973 73.9087 14.239 74.2594 13.9484L78.0485 10.8092C78.7138 10.258 78.4141 9.17935 77.5598 9.05032L72.4735 8.28209C72.0985 8.22544 71.7694 8.00155 71.579 7.67347L68.865 2.99616Z" fill="#FF8800"/>
<path d="M96.865 2.99616C96.4796 2.33201 95.5205 2.33201 95.1351 2.99616L92.4211 7.67347C92.2307 8.00155 91.9016 8.22544 91.5266 8.28209L86.4403 9.05032C85.586 9.17935 85.2863 10.258 85.9516 10.8092L89.7407 13.9484C90.0915 14.239 90.2564 14.6973 90.1712 15.1448L89.18 20.3499C89.0233 21.1727 89.8871 21.812 90.6283 21.4218L95.4177 18.9C95.7822 18.708 96.2179 18.708 96.5824 18.9L101.372 21.4218C102.113 21.812 102.977 21.1727 102.82 20.3499L101.829 15.1448C101.744 14.6973 101.909 14.239 102.259 13.9484L106.048 10.8092C106.714 10.258 106.414 9.17935 105.56 9.05032L100.474 8.28209C100.098 8.22544 99.7694 8.00155 99.579 7.67347L96.865 2.99616Z" fill="#FF8800"/>
<path d="M124.865 2.99616C124.48 2.33201 123.521 2.33201 123.135 2.99616L120.421 7.67347C120.231 8.00155 119.902 8.22544 119.527 8.28209L114.44 9.05032C113.586 9.17935 113.286 10.258 113.952 10.8092L117.741 13.9484C118.091 14.239 118.256 14.6973 118.171 15.1448L117.18 20.3499C117.023 21.1727 117.887 21.812 118.628 21.4218L123.418 18.9C123.782 18.708 124.218 18.708 124.582 18.9L129.372 21.4218C130.113 21.812 130.977 21.1727 130.82 20.3499L129.829 15.1448C129.744 14.6973 129.909 14.239 130.259 13.9484L134.048 10.8092C134.714 10.258 134.414 9.17935 133.56 9.05032L128.474 8.28209C128.098 8.22544 127.769 8.00155 127.579 7.67347L124.865 2.99616Z" fill="#FF8800"/>
</svg>
