<svg width="100" height="100" viewBox="0 0 100 100" fill="none" xmlns="http://www.w3.org/2000/svg">
<rect width="100" height="100" rx="4" fill="#FFF0F0"/>
<path fill-rule="evenodd" clip-rule="evenodd" d="M74.8318 23.3909C74.4828 23.4655 74.1524 23.6096 73.8604 23.8144C73.5684 24.0193 73.3207 24.2808 73.1321 24.5833L71.8987 26.58L76.7008 29.5376C77.0913 28.9067 77.5425 28.0689 77.9646 27.4866C78.3135 26.881 78.4098 26.1626 78.2325 25.4867C78.0461 24.7658 77.5874 24.1449 76.9526 23.7542C76.3178 23.3635 75.5562 23.2333 74.8274 23.3909H74.8318ZM58.3616 72.5358C58.2807 72.4586 58.216 72.3661 58.1714 72.2636C58.1269 72.1611 58.1032 72.0508 58.102 71.9391C58.1007 71.8274 58.1218 71.7165 58.164 71.6131C58.2062 71.5096 58.2687 71.4157 58.3479 71.3367C58.427 71.2577 58.5211 71.1952 58.6247 71.1531C58.7283 71.1109 58.8394 71.0899 58.9512 71.0911C59.0631 71.0924 59.1736 71.116 59.2762 71.1605C59.3789 71.205 59.4716 71.2696 59.5488 71.3503L61.8969 73.6947L68.4822 67.1197C68.6408 66.9684 68.8524 66.885 69.0718 66.8875C69.2912 66.89 69.5009 66.9782 69.656 67.1331C69.8112 67.2879 69.8994 67.4973 69.9019 67.7163C69.9044 67.9354 69.821 68.1467 69.6694 68.3051L62.4908 75.4725C62.4129 75.5504 62.3203 75.6122 62.2185 75.6543C62.1166 75.6965 62.0074 75.7182 61.8972 75.7182C61.7869 75.7182 61.6777 75.6965 61.5759 75.6543C61.474 75.6122 61.3815 75.5504 61.3035 75.4725L58.3616 72.5358ZM64.0155 60.5932C64.2261 60.5932 64.4367 60.5993 64.6474 60.6115V52.2423L63.1827 54.6144C63.1204 54.7149 63.0372 54.8009 62.9388 54.8667L55.587 59.8147C55.449 59.9079 55.2863 59.9579 55.1196 59.9583C54.953 59.9587 54.79 59.9095 54.6515 59.817C54.513 59.7246 54.4052 59.593 54.3419 59.4391C54.2786 59.2852 54.2627 59.1159 54.2961 58.9529L55.0929 52.7293H47.2445C47.1324 52.7324 47.0207 52.713 46.9162 52.6722C46.8116 52.6315 46.7163 52.5703 46.6359 52.4921C46.5555 52.414 46.4915 52.3206 46.4479 52.2174C46.4042 52.1141 46.3817 52.0032 46.3817 51.8912C46.3817 51.7792 46.4042 51.6683 46.4479 51.565C46.4915 51.4618 46.5555 51.3684 46.6359 51.2903C46.7163 51.2121 46.8116 51.1509 46.9162 51.1101C47.0207 51.0694 47.1324 51.05 47.2445 51.0531H55.3071L55.412 50.2329C55.4279 50.1103 55.4711 49.9928 55.5384 49.8891L56.1551 48.8904H41.9754C41.7527 48.8904 41.5391 48.8021 41.3816 48.6448C41.2241 48.4876 41.1357 48.2743 41.1357 48.052C41.1357 47.8296 41.2241 47.6164 41.3816 47.4591C41.5391 47.3019 41.7527 47.2135 41.9754 47.2135H57.1882L64.6442 35.1366V30.0265H56.1235C55.9009 30.0265 55.6874 29.9383 55.5299 29.7812C55.3725 29.6241 55.2839 29.411 55.2838 29.1887V20.6769H22.6795V77.3746H55.1934C54.3453 76.1454 53.7635 74.753 53.4851 73.2865C53.2066 71.82 53.2378 70.3116 53.5765 68.8577H47.2445C47.0218 68.8577 46.8082 68.7694 46.6507 68.6122C46.4933 68.4549 46.4048 68.2417 46.4048 68.0193C46.4048 67.7969 46.4933 67.5837 46.6507 67.4264C46.8082 67.2692 47.0218 67.1809 47.2445 67.1809H54.1173C54.4368 66.4163 54.8442 65.6914 55.3311 65.0207H41.9754C41.8632 65.0238 41.7516 65.0044 41.647 64.9637C41.5425 64.9229 41.4472 64.8617 41.3668 64.7836C41.2864 64.7054 41.2224 64.612 41.1788 64.5088C41.1351 64.4056 41.1126 64.2947 41.1126 64.1826C41.1126 64.0706 41.1351 63.9597 41.1788 63.8565C41.2224 63.7532 41.2864 63.6598 41.3668 63.5817C41.4472 63.5035 41.5425 63.4423 41.647 63.4016C41.7516 63.3608 41.8632 63.3414 41.9754 63.3445H56.8407C58.8074 61.5701 61.3648 60.5894 64.0155 60.5932ZM66.3262 60.8456C67.9406 61.2012 69.4507 61.9247 70.7385 62.9597C72.0263 63.9946 73.0569 65.3129 73.7497 66.8116C74.4425 68.3102 74.7788 69.9485 74.7323 71.5984C74.6858 73.2483 74.2577 74.8651 73.4815 76.3224C72.7053 77.7798 71.602 79.0381 70.2579 79.999C68.9138 80.96 67.3653 81.5976 65.7335 81.8619C64.1017 82.1262 62.4308 82.0101 60.8514 81.5227C59.2719 81.0352 57.8268 80.1897 56.629 79.0521H21.8397C21.6171 79.0521 21.4036 78.9639 21.2462 78.8068C21.0887 78.6497 21.0002 78.4366 21 78.2143V19.8384C21 19.6161 21.0885 19.4028 21.246 19.2456C21.4034 19.0883 21.617 19 21.8397 19H56.1235C56.2353 18.9998 56.346 19.0221 56.449 19.0654C56.552 19.1088 56.6452 19.1723 56.7231 19.2524L66.0811 28.5957C66.1593 28.6734 66.2214 28.7658 66.2637 28.8676C66.306 28.9693 66.3277 29.0785 66.3275 29.1887V32.4207L71.7085 23.7051C72.0145 23.2123 72.4168 22.7861 72.8915 22.4519C73.3661 22.1177 73.9033 21.8824 74.471 21.7601C75.6257 21.5082 76.8332 21.7136 77.8392 22.3331C78.8452 22.9526 79.5711 23.9377 79.864 25.081C80.0085 25.6426 80.0382 26.2275 79.9514 26.8008C79.8645 27.3741 79.6629 27.924 79.3585 28.4178L66.3262 49.5232V60.8456ZM70.4075 64.9166C68.9281 63.4408 66.982 62.5228 64.9008 62.3191C62.8196 62.1153 60.732 62.6384 58.9937 63.7991C57.2554 64.9599 55.974 66.6865 55.3679 68.6848C54.7617 70.6832 54.8683 72.8295 55.6695 74.7582C56.4706 76.6868 57.9168 78.2784 59.7616 79.2618C61.6063 80.2452 63.7355 80.5595 65.7864 80.1512C67.8372 79.7428 69.6828 78.6371 71.0086 77.0224C72.3345 75.4078 73.0586 73.384 73.0575 71.2961C73.059 70.1107 72.8259 68.9367 72.3716 67.8416C71.9172 66.7465 71.2506 65.7518 70.41 64.9147L70.4075 64.9166ZM30.6378 66.3342L32.3211 68.0155C32.3991 68.0934 32.4916 68.1552 32.5935 68.1973C32.6953 68.2395 32.8045 68.2612 32.9148 68.2612C33.025 68.2612 33.1342 68.2395 33.2361 68.1973C33.3379 68.1552 33.4305 68.0934 33.5084 68.0155L35.852 65.6756V69.0363H29.9756V63.1691H35.852V63.306L32.9151 66.2364L31.8251 65.1482C31.6676 64.991 31.454 64.9027 31.2313 64.9028C31.0085 64.9028 30.795 64.9912 30.6375 65.1485C30.4801 65.3058 30.3917 65.5191 30.3917 65.7414C30.3918 65.9638 30.4803 66.177 30.6378 66.3342ZM37.3489 61.8102L37.8626 61.296C38.0212 61.1447 38.2329 61.0614 38.4523 61.0639C38.6716 61.0664 38.8813 61.1545 39.0365 61.3094C39.1916 61.4643 39.2799 61.6737 39.2824 61.8927C39.2849 62.1117 39.2014 62.3231 39.0499 62.4814L37.5334 63.9956V69.8716C37.5334 70.0939 37.4449 70.3072 37.2874 70.4644C37.13 70.6217 36.9164 70.71 36.6936 70.71H29.1378C28.9151 70.71 28.7015 70.6217 28.544 70.4644C28.3865 70.3072 28.298 70.0939 28.298 69.8716V62.3319C28.298 62.1096 28.3865 61.8963 28.544 61.7391C28.7015 61.5818 28.9151 61.4935 29.1378 61.4935H36.6917C36.818 61.4934 36.9426 61.5217 37.0564 61.5763C37.1702 61.6309 37.2701 61.7104 37.3489 61.8089V61.8102ZM30.6378 50.2045L32.3211 51.8871C32.3991 51.965 32.4916 52.0268 32.5935 52.0689C32.6953 52.1111 32.8045 52.1328 32.9148 52.1328C33.025 52.1328 33.1342 52.1111 33.2361 52.0689C33.3379 52.0268 33.4305 51.965 33.5084 51.8871L35.852 49.5472V52.9079H29.9756V47.0407H35.852V47.1744L32.9151 50.1074L31.8251 49.0191C31.6665 48.8678 31.4548 48.7845 31.2355 48.787C31.0161 48.7895 30.8064 48.8776 30.6512 49.0325C30.4961 49.1874 30.4078 49.3968 30.4053 49.6158C30.4028 49.8348 30.4863 50.0462 30.6378 50.2045ZM37.3489 45.6805L37.8626 45.167C37.9399 45.0862 38.0326 45.0217 38.1352 44.9771C38.2378 44.9326 38.3483 44.909 38.4602 44.9078C38.5721 44.9065 38.6831 44.9276 38.7867 44.9697C38.8903 45.0119 38.9845 45.0743 39.0636 45.1533C39.1427 45.2323 39.2052 45.3263 39.2474 45.4297C39.2897 45.5332 39.3108 45.644 39.3095 45.7557C39.3082 45.8674 39.2846 45.9778 39.24 46.0802C39.1954 46.1827 39.1308 46.2752 39.0499 46.3524L37.5334 47.8665V53.7425C37.5334 53.9649 37.4449 54.1781 37.2874 54.3354C37.13 54.4926 36.9164 54.5809 36.6936 54.5809H29.1378C28.9151 54.5809 28.7015 54.4926 28.544 54.3354C28.3865 54.1781 28.298 53.9649 28.298 53.7425V46.2022C28.298 46.0922 28.3198 45.9832 28.362 45.8815C28.4042 45.7798 28.4661 45.6874 28.544 45.6096C28.622 45.5318 28.7146 45.4701 28.8165 45.428C28.9184 45.386 29.0275 45.3644 29.1378 45.3644H36.6917C36.818 45.3642 36.9427 45.3924 37.0565 45.447C37.1703 45.5017 37.2702 45.5819 37.3489 45.6805ZM56.1823 57.3947L57.0486 50.6253L57.518 49.8683L57.8915 50.4537C57.9645 50.5689 58.0646 50.6645 58.1831 50.7323C58.3016 50.8 58.4349 50.8378 58.5714 50.8424L60.1321 51.0001L61.0053 52.371C61.0783 52.4862 61.1785 52.5818 61.2969 52.6495C61.4154 52.7172 61.5487 52.755 61.6852 52.7596L62.3234 52.8227L61.8558 53.5797L56.1823 57.3947ZM30.6378 34.0755L32.3211 35.7561C32.3991 35.834 32.4916 35.8958 32.5935 35.938C32.6953 35.9801 32.8045 36.0018 32.9148 36.0018C33.025 36.0018 33.1342 35.9801 33.2361 35.938C33.3379 35.8958 33.4305 35.834 33.5084 35.7561L35.852 33.4162V36.7769H29.9756V30.9097H35.852V31.0435L32.9151 33.9777L31.8251 32.8894C31.6676 32.7322 31.454 32.644 31.2313 32.644C31.0085 32.6441 30.795 32.7325 30.6375 32.8897C30.4801 33.047 30.3917 33.2603 30.3917 33.4827C30.3918 33.7051 30.4803 33.9183 30.6378 34.0755ZM37.3489 29.554L37.8626 29.0373C38.02 28.88 38.2336 28.7916 38.4563 28.7916C38.679 28.7915 38.8927 28.8798 39.0502 29.037C39.2077 29.1942 39.2962 29.4074 39.2963 29.6298C39.2964 29.8521 39.2079 30.0654 39.0505 30.2227L37.534 31.7368V37.6128C37.534 37.7229 37.5123 37.832 37.4701 37.9337C37.4279 38.0354 37.366 38.1278 37.2881 38.2057C37.2101 38.2835 37.1175 38.3453 37.0156 38.3874C36.9137 38.4296 36.8046 38.4513 36.6943 38.4513H29.1378C28.9151 38.4513 28.7015 38.3629 28.544 38.2057C28.3865 38.0485 28.298 37.8352 28.298 37.6128V30.0732C28.298 29.8508 28.3865 29.6376 28.544 29.4803C28.7015 29.3231 28.9151 29.2348 29.1378 29.2348H36.6917C36.818 29.2346 36.9426 29.2629 37.0564 29.3175C37.1702 29.3722 37.2701 29.4517 37.3489 29.5502V29.554ZM58.1884 34.9272C58.4112 34.9272 58.6248 35.0155 58.7822 35.1727C58.9397 35.33 59.0282 35.5432 59.0282 35.7656C59.0282 35.988 58.9397 36.2012 58.7822 36.3585C58.6248 36.5157 58.4112 36.604 58.1884 36.604H47.2445C47.0218 36.604 46.8082 36.5157 46.6507 36.3585C46.4933 36.2012 46.4048 35.988 46.4048 35.7656C46.4048 35.5432 46.4933 35.33 46.6507 35.1727C46.8082 35.0155 47.0218 34.9272 47.2445 34.9272H58.1884ZM58.1884 31.0908C58.2987 31.0908 58.4079 31.1125 58.5098 31.1546C58.6117 31.1968 58.7043 31.2585 58.7822 31.3364C58.8602 31.4142 58.9221 31.5067 58.9643 31.6084C59.0065 31.7101 59.0282 31.8191 59.0282 31.9292C59.0282 32.0393 59.0065 32.1484 58.9643 32.2501C58.9221 32.3518 58.8602 32.4442 58.7822 32.5221C58.7043 32.6 58.6117 32.6617 58.5098 32.7039C58.4079 32.746 58.2987 32.7677 58.1884 32.7677H41.9754C41.8651 32.7677 41.7559 32.746 41.654 32.7039C41.5522 32.6617 41.4596 32.6 41.3816 32.5221C41.3036 32.4442 41.2418 32.3518 41.1996 32.2501C41.1574 32.1484 41.1357 32.0393 41.1357 31.9292C41.1357 31.8191 41.1574 31.7101 41.1996 31.6084C41.2418 31.5067 41.3036 31.4142 41.3816 31.3364C41.4596 31.2585 41.5522 31.1968 41.654 31.1546C41.7559 31.1125 41.8651 31.0908 41.9754 31.0908H58.1884ZM56.9614 28.3534V21.8623L63.4595 28.3503L56.9614 28.3534ZM58.4968 48.2835L71.0204 28.002L72.7106 29.0423L71.1347 31.5942C71.0213 31.7826 70.9869 32.0081 71.0389 32.2216C71.0908 32.4352 71.225 32.6197 71.4123 32.7352C71.5996 32.8507 71.825 32.8878 72.0395 32.8385C72.254 32.7892 72.4404 32.6574 72.5583 32.4718L74.138 29.9193L75.8282 30.9596L63.3002 51.2398L62.2046 51.13L61.6113 50.1982L70.8314 35.2678C70.8907 35.1745 70.9309 35.0703 70.9495 34.9614C70.9682 34.8524 70.965 34.7409 70.9402 34.6331C70.9153 34.5254 70.8693 34.4237 70.8048 34.3339C70.7403 34.244 70.6586 34.1679 70.5644 34.1098C70.4702 34.0517 70.3654 34.0129 70.2561 33.9956C70.1467 33.9782 70.035 33.9828 69.9274 34.0088C69.8199 34.0349 69.7185 34.0821 69.6293 34.1476C69.5402 34.213 69.4649 34.2955 69.4078 34.3903L60.1864 49.3226L59.0933 49.2122L58.4968 48.2835Z" fill="#E4322B"/>
</svg>
