<svg width="101" height="100" viewBox="0 0 101 100" fill="none" xmlns="http://www.w3.org/2000/svg">
<rect x="0.838379" width="100" height="100" rx="4" fill="#FFF0F0"/>
<path d="M71.9051 66.8766H67.2654C66.819 66.8766 66.4682 66.5274 66.4682 66.0831C66.4682 65.6388 66.819 65.2896 67.2654 65.2896H71.9051C73.9778 65.2896 75.6679 63.6075 75.6679 61.5445V42.8189C75.6679 42.3745 76.0187 42.0254 76.4651 42.0254C76.9115 42.0254 77.2623 42.3745 77.2623 42.8189V61.5445C77.2783 64.4803 74.8707 66.8766 71.9051 66.8766ZM33.735 66.8766H29.0953C26.1457 66.8766 23.7222 64.4803 23.7222 61.5445V42.8189C23.7222 42.3745 24.0729 42.0254 24.5194 42.0254C24.9658 42.0254 25.3166 42.3745 25.3166 42.8189V61.5445C25.3166 63.6075 27.0066 65.2896 29.0953 65.2896H33.735C34.1815 65.2896 34.5322 65.6388 34.5322 66.0831C34.5322 66.5274 34.1815 66.8766 33.735 66.8766Z" fill="#E4322B"/>
<path d="M59.7557 27.4573C59.3093 27.4573 58.9585 27.1082 58.9585 26.6639V22.0777C58.9585 20.6177 58.3845 19.2371 57.3481 18.2056C56.3118 17.1741 54.9246 16.5869 53.4578 16.5869H47.5585C46.0916 16.5869 44.7045 17.1582 43.6681 18.1897C42.6318 19.2212 42.0578 20.6018 42.0578 22.0618V26.648C42.0578 27.0923 41.707 27.4415 41.2606 27.4415C40.8141 27.4415 40.4634 27.0923 40.4634 26.648V22.0777C40.4634 20.1892 41.1968 18.4119 42.552 17.0789C43.8913 15.7459 45.6771 15 47.5744 15H53.4737C55.3711 15 57.1568 15.73 58.4961 17.0789C59.8354 18.4277 60.5848 20.1892 60.5848 22.0777V26.6639C60.5529 27.0923 60.2021 27.4573 59.7557 27.4573ZM54.3028 27.4573C53.8564 27.4573 53.5056 27.1082 53.5056 26.6639V22.0777C53.5056 22.0777 53.5056 22.0618 53.4897 22.0459C53.4737 22.0301 53.4578 22.0301 53.4578 22.0301H47.5585C47.5585 22.0301 47.5425 22.0301 47.5266 22.0459C47.5107 22.0618 47.5107 22.0777 47.5107 22.0777V26.6639C47.5107 27.1082 47.1599 27.4573 46.7134 27.4573C46.267 27.4573 45.9162 27.1082 45.9162 26.6639V22.0777C45.9162 21.6492 46.0916 21.2366 46.3946 20.9192C46.7134 20.6018 47.1121 20.4431 47.5585 20.4431H53.4578C53.8883 20.4431 54.3028 20.6177 54.6217 20.9192C54.9406 21.2366 55.1 21.6333 55.1 22.0777V26.6639C55.1 27.0923 54.7333 27.4573 54.3028 27.4573Z" fill="#E4322B"/>
<path d="M78.2028 43.6121H56.4551C56.0087 43.6121 55.6579 43.263 55.6579 42.8187V40.6446H45.358V42.8187C45.358 43.263 45.0073 43.6121 44.5608 43.6121H22.7972C22.3508 43.6121 22 43.263 22 42.8187V30.155C22 27.7905 23.9292 25.8704 26.3208 25.8704H74.6951C77.0708 25.8704 79 27.7905 79 30.155V42.8187C79 43.263 78.6492 43.6121 78.2028 43.6121ZM57.2523 42.0252H77.4056V30.155C77.4056 28.6633 76.1938 27.4573 74.6951 27.4573H26.3049C24.8062 27.4573 23.5944 28.6792 23.5944 30.155V42.0252H43.7477V39.8511C43.7477 39.4068 44.0985 39.0577 44.5449 39.0577H56.4392C56.8856 39.0577 57.2364 39.4068 57.2364 39.8511L57.2523 42.0252Z" fill="#E4322B"/>
<path d="M56.4556 46.5799H44.5614C44.1149 46.5799 43.7642 46.2307 43.7642 45.7864V39.8672C43.7642 39.4229 44.1149 39.0737 44.5614 39.0737H56.4556C56.9021 39.0737 57.2528 39.4229 57.2528 39.8672V45.7864C57.2528 46.2149 56.8861 46.5799 56.4556 46.5799ZM45.3426 44.9929H55.6425V40.6607H45.3426V44.9929Z" fill="#E4322B"/>
<path d="M53.2177 51.5786C52.7713 51.5786 52.4205 51.2295 52.4205 50.7852V45.7705C52.4205 45.3262 52.7713 44.9771 53.2177 44.9771C53.6641 44.9771 54.0149 45.3262 54.0149 45.7705V50.7852C54.0149 51.2295 53.6482 51.5786 53.2177 51.5786ZM47.7967 51.5786C47.3503 51.5786 46.9995 51.2295 46.9995 50.7852V45.7705C46.9995 45.3262 47.3503 44.9771 47.7967 44.9771C48.2431 44.9771 48.5939 45.3262 48.5939 45.7705V50.7852C48.5939 51.2295 48.2272 51.5786 47.7967 51.5786Z" fill="#E4322B"/>
<path d="M33.3045 58.9102C32.8581 58.9102 32.5073 58.5611 32.5073 58.1167V50.9915C32.5073 50.5471 32.8581 50.198 33.3045 50.198C33.751 50.198 34.1017 50.5471 34.1017 50.9915V58.1167C34.1017 58.5452 33.735 58.9102 33.3045 58.9102Z" fill="#E4322B"/>
<path d="M39.0438 55.8633C38.5974 55.8633 38.2466 55.5142 38.2466 55.0698V50.9756C38.2466 50.5313 38.5974 50.1821 39.0438 50.1821C39.4902 50.1821 39.841 50.5313 39.841 50.9756V55.0698C39.841 55.5142 39.4743 55.8633 39.0438 55.8633Z" fill="#E4322B"/>
<path d="M61.972 55.8633C61.5256 55.8633 61.1748 55.5142 61.1748 55.0698V50.9756C61.1748 50.5313 61.5256 50.1821 61.972 50.1821C62.4184 50.1821 62.7692 50.5313 62.7692 50.9756V55.0698C62.7692 55.5142 62.4025 55.8633 61.972 55.8633Z" fill="#E4322B"/>
<path d="M67.6952 58.9102C67.2487 58.9102 66.8979 58.5611 66.8979 58.1167V50.9915C66.8979 50.5471 67.2487 50.198 67.6952 50.198C68.1416 50.198 68.4924 50.5471 68.4924 50.9915V58.1167C68.4924 58.5452 68.1416 58.9102 67.6952 58.9102Z" fill="#E4322B"/>
<path d="M45.103 34.0588H32.6507C32.2043 34.0588 31.8535 33.7097 31.8535 33.2654C31.8535 32.821 32.2043 32.4719 32.6507 32.4719H45.103C45.5495 32.4719 45.9002 32.821 45.9002 33.2654C45.9002 33.7097 45.5335 34.0588 45.103 34.0588Z" fill="#E4322B"/>
<path d="M68.3657 34.0588H55.9134C55.467 34.0588 55.1162 33.7097 55.1162 33.2654C55.1162 32.821 55.467 32.4719 55.9134 32.4719H68.3657C68.8122 32.4719 69.1629 32.821 69.1629 33.2654C69.1629 33.7097 68.7962 34.0588 68.3657 34.0588Z" fill="#E4322B"/>
<path d="M50.5075 72.3672C47.7014 72.3672 45.4214 70.0979 45.4214 67.305C45.4214 64.512 47.7014 62.2427 50.5075 62.2427C53.3137 62.2427 55.5937 64.512 55.5937 67.305C55.5778 70.0979 53.3137 72.3672 50.5075 72.3672ZM50.5075 63.8296C48.5783 63.8296 47.0158 65.3848 47.0158 67.305C47.0158 69.2251 48.5783 70.7803 50.5075 70.7803C52.4368 70.7803 53.9993 69.2251 53.9993 67.305C53.9993 65.3848 52.4208 63.8296 50.5075 63.8296Z" fill="#E4322B"/>
<path d="M50.5088 69.2727C49.4246 69.2727 48.5317 68.384 48.5317 67.3049C48.5317 66.2258 49.4246 65.3372 50.5088 65.3372C51.593 65.3372 52.4859 66.2258 52.4859 67.3049C52.4859 68.384 51.593 69.2727 50.5088 69.2727ZM50.5088 66.9241C50.3015 66.9241 50.1261 67.0986 50.1261 67.3049C50.1261 67.5112 50.3015 67.6858 50.5088 67.6858C50.7161 67.6858 50.8915 67.5112 50.8915 67.3049C50.8915 67.0986 50.7161 66.9241 50.5088 66.9241Z" fill="#E4322B"/>
<path d="M50.5082 74.4778C46.0119 74.4778 41.5157 72.2878 36.7644 67.8921C36.6049 67.7334 36.5093 67.5271 36.5093 67.3049C36.5093 67.0827 36.6049 66.8764 36.7644 66.7177C46.267 57.9421 54.7493 57.9421 64.2679 66.7177C64.4273 66.8764 64.523 67.0827 64.523 67.3049C64.523 67.5271 64.4273 67.7334 64.2679 67.8921C59.5006 72.272 55.0044 74.4778 50.5082 74.4778ZM38.4863 67.3049C42.7275 71.05 46.6656 72.8909 50.5082 72.8909C54.3507 72.8909 58.2889 71.0659 62.53 67.3049C58.2889 63.5598 54.3507 61.7189 50.5082 61.7189C46.6656 61.7189 42.7275 63.5598 38.4863 67.3049Z" fill="#E4322B"/>
<path d="M50.5078 84.8402C40.7979 84.8402 32.8896 76.985 32.8896 67.3048C32.8896 57.6245 40.7979 49.7693 50.5078 49.7693C60.2178 49.7693 68.126 57.6245 68.126 67.3048C68.126 76.985 60.2178 84.8402 50.5078 84.8402ZM50.5078 51.3721C41.6748 51.3721 34.4841 58.5291 34.4841 67.3206C34.4841 76.1122 41.6748 83.2692 50.5078 83.2692C59.3408 83.2692 66.5316 76.1122 66.5316 67.3206C66.5316 58.5291 59.3249 51.3721 50.5078 51.3721Z" fill="#E4322B"/>
<path d="M62.386 79.9366C62.1787 79.9366 61.9714 79.8573 61.8279 79.6986L38.0553 56.0376C37.7524 55.7202 37.7524 55.2283 38.0553 54.9109C38.3583 54.5935 38.8685 54.5935 39.1874 54.9109L62.9599 78.5719C63.2788 78.8892 63.2788 79.3812 62.9599 79.6986C62.8005 79.8573 62.5932 79.9366 62.386 79.9366Z" fill="#E4322B"/>
</svg>
