<svg width="100" height="100" viewBox="0 0 100 100" fill="none" xmlns="http://www.w3.org/2000/svg">
<rect width="100" height="100" rx="4" fill="#FFF0F0"/>
<path fill-rule="evenodd" clip-rule="evenodd" d="M33.3192 35.8374C33.323 35.9755 33.299 36.1129 33.2487 36.2416C33.1985 36.3703 33.123 36.4876 33.0266 36.5865C32.9303 36.6855 32.8151 36.7642 32.6878 36.8179C32.5606 36.8717 32.4238 36.8993 32.2857 36.8993C32.1476 36.8993 32.0108 36.8717 31.8836 36.8179C31.7563 36.7642 31.6411 36.6855 31.5448 36.5865C31.4484 36.4876 31.3729 36.3703 31.3226 36.2416C31.2724 36.1129 31.2484 35.9755 31.2521 35.8374V35.3182C30.4583 35.0926 29.7596 34.6144 29.2618 33.9561C28.7641 33.2978 28.4945 32.4952 28.4938 31.6699C28.4938 31.3957 28.6027 31.1327 28.7966 30.9388C28.9905 30.7449 29.2535 30.636 29.5277 30.636C29.8019 30.636 30.0649 30.7449 30.2588 30.9388C30.4527 31.1327 30.5616 31.3957 30.5616 31.6699C30.5616 32.1002 30.7224 32.5149 31.0126 32.8326C31.3028 33.1503 31.7014 33.348 32.1299 33.3868C32.2332 33.3716 32.3382 33.3716 32.4415 33.3868C32.87 33.348 33.2685 33.1503 33.5587 32.8326C33.8489 32.5149 34.0098 32.1002 34.0098 31.6699C34.0107 31.4675 33.971 31.2669 33.8928 31.0802C33.8147 30.8935 33.6998 30.7244 33.555 30.5829C33.1796 30.2298 32.7019 30.0047 32.1906 29.9401C32.1633 29.9401 32.136 29.9341 32.1079 29.9295C31.138 29.788 30.2349 29.352 29.5209 28.6803C29.1874 28.3506 28.9241 27.9568 28.7469 27.5226C28.5697 27.0884 28.4823 26.6228 28.49 26.1539C28.4905 25.3285 28.7601 24.5257 29.2578 23.8673C29.7556 23.2088 30.4544 22.7305 31.2484 22.5049V21.9856C31.2557 21.7164 31.3677 21.4606 31.5608 21.2727C31.7538 21.0848 32.0125 20.9797 32.2819 20.9797C32.5513 20.9797 32.81 21.0848 33.003 21.2727C33.1961 21.4606 33.3081 21.7164 33.3154 21.9856V22.5049C34.1094 22.7304 34.8082 23.2087 35.3058 23.8672C35.8035 24.5257 36.0728 25.3285 36.0731 26.1539C36.0768 26.292 36.0528 26.4294 36.0026 26.5581C35.9523 26.6867 35.8768 26.804 35.7804 26.903C35.6841 27.002 35.5689 27.0807 35.4416 27.1344C35.3144 27.1881 35.1777 27.2158 35.0395 27.2158C34.9014 27.2158 34.7647 27.1881 34.6374 27.1344C34.5101 27.0807 34.3949 27.002 34.2986 26.903C34.2023 26.804 34.1267 26.6867 34.0765 26.5581C34.0262 26.4294 34.0022 26.292 34.006 26.1539C34.0062 25.7235 33.8454 25.3085 33.5552 24.9907C33.265 24.6728 32.8663 24.4751 32.4377 24.4363C32.3345 24.4524 32.2293 24.4524 32.1261 24.4363C31.6975 24.4751 31.2988 24.6728 31.0086 24.9907C30.7184 25.3085 30.5576 25.7235 30.5578 26.1539C30.5536 26.3503 30.589 26.5456 30.6621 26.7279C30.7352 26.9103 30.8444 27.076 30.9831 27.2151C31.3938 27.5846 31.9072 27.8204 32.4551 27.8913L32.4832 27.8966C33.4353 28.0245 34.3218 28.4525 35.0141 29.1185C35.3528 29.4504 35.6213 29.8471 35.8036 30.2849C35.9859 30.7227 36.0783 31.1926 36.0753 31.6669C36.0749 32.4921 35.8055 33.2948 35.3079 33.9531C34.8102 34.6115 34.1116 35.0896 33.3177 35.3152V35.8344L33.3192 35.8374ZM62.9929 42.7633C62.9929 43.0375 62.8839 43.3005 62.69 43.4944C62.4961 43.6883 62.2332 43.7972 61.959 43.7972C61.6847 43.7972 61.4218 43.6883 61.2279 43.4944C61.034 43.3005 60.925 43.0375 60.925 42.7633V42.2441C60.1311 42.0185 59.4323 41.5402 58.9346 40.8817C58.437 40.2232 58.1677 39.4204 58.1674 38.5951C58.1747 38.3258 58.2868 38.07 58.4798 37.8821C58.6729 37.6942 58.9316 37.5891 59.201 37.5891C59.4703 37.5891 59.729 37.6942 59.9221 37.8821C60.1151 38.07 60.2272 38.3258 60.2345 38.5951C60.2346 39.0255 60.3956 39.4403 60.686 39.7581C60.9763 40.0759 61.3749 40.2737 61.8036 40.3127C61.9069 40.2975 62.0118 40.2975 62.1151 40.3127C62.5438 40.2739 62.9424 40.0761 63.2326 39.7583C63.5229 39.4404 63.6837 39.0255 63.6834 38.5951C63.6843 38.3927 63.6445 38.1923 63.5664 38.0057C63.4883 37.8191 63.3734 37.6501 63.2286 37.5088C62.8532 37.1557 62.3755 36.9306 61.8642 36.866C61.8369 36.866 61.8096 36.86 61.7816 36.8547C60.8114 36.7137 59.9082 36.2775 59.1945 35.6055C58.861 35.276 58.5977 34.8823 58.4205 34.4482C58.2433 34.0141 58.1559 33.5486 58.1636 33.0798C58.1639 32.2544 58.4332 31.4516 58.9309 30.7931C59.4285 30.1346 60.1273 29.6563 60.9212 29.4308V28.9115C60.9212 28.6373 61.0302 28.3743 61.2241 28.1804C61.418 27.9865 61.681 27.8776 61.9552 27.8776C62.2294 27.8776 62.4924 27.9865 62.6863 28.1804C62.8802 28.3743 62.9891 28.6373 62.9891 28.9115V29.4308C63.7831 29.6563 64.4818 30.1346 64.9795 30.7931C65.4771 31.4516 65.7465 32.2544 65.7467 33.0798C65.7505 33.2179 65.7265 33.3553 65.6762 33.484C65.626 33.6126 65.5504 33.7299 65.4541 33.8289C65.3577 33.9279 65.2425 34.0066 65.1153 34.0603C64.988 34.114 64.8513 34.1417 64.7132 34.1417C64.575 34.1417 64.4383 34.114 64.3111 34.0603C64.1838 34.0066 64.0686 33.9279 63.9722 33.8289C63.8759 33.7299 63.8004 33.6126 63.7501 33.484C63.6999 33.3553 63.6759 33.2179 63.6796 33.0798C63.6798 32.6493 63.5189 32.2342 63.2286 31.9164C62.9382 31.5985 62.5394 31.4008 62.1106 31.3622C62.0076 31.3783 61.9027 31.3783 61.7998 31.3622C61.3711 31.4011 60.9725 31.5989 60.6822 31.9167C60.3919 32.2345 60.2308 32.6494 60.2307 33.0798C60.2264 33.2763 60.262 33.4716 60.3352 33.654C60.4084 33.8364 60.5178 34.002 60.6567 34.141C61.0674 34.5105 61.5808 34.7463 62.1287 34.8171L62.1568 34.8225C63.1088 34.9498 63.9953 35.3779 64.687 36.0444C65.0258 36.3761 65.2944 36.7726 65.4767 37.2103C65.659 37.648 65.7513 38.1179 65.7482 38.592C65.748 39.4174 65.4786 40.2202 64.981 40.8787C64.4834 41.5372 63.7846 42.0155 62.9906 42.2411V42.7603L62.9929 42.7633ZM31.5175 58.4828C30.8571 57.8222 29.9882 57.411 29.0586 57.3192C28.1291 57.2274 27.1965 57.4608 26.4197 57.9796C25.643 58.4984 25.0702 59.2705 24.7989 60.1643C24.5276 61.0581 24.5747 62.0183 24.932 62.8813C25.2894 63.7443 25.9349 64.4567 26.7587 64.8971C27.5824 65.3375 28.5333 65.4786 29.4495 65.2964C30.3656 65.1142 31.1902 64.62 31.7828 63.898C32.3753 63.176 32.6992 62.2708 32.6992 61.3367C32.6999 60.8066 32.5959 60.2816 32.3931 59.7919C32.1903 59.3021 31.8927 58.8572 31.5175 58.4828ZM28.6636 55.2333C30.0756 55.2331 31.4441 55.7225 32.5358 56.6181C33.6275 57.5138 34.3748 58.7602 34.6505 60.1451C34.9262 61.5301 34.7132 62.9677 34.0477 64.2131C33.3822 65.4586 32.3055 66.4347 31.0009 66.9753C29.6964 67.5158 28.2448 67.5873 26.8935 67.1776C25.5422 66.7679 24.3747 65.9023 23.5901 64.7282C22.8054 63.5542 22.4521 62.1445 22.5904 60.7392C22.7286 59.3339 23.3499 58.02 24.3482 57.0214C24.9143 56.4538 25.5869 56.0036 26.3275 55.6967C27.068 55.3899 27.8619 55.2324 28.6636 55.2333ZM41.4344 78.2039V81.9871C41.4344 82.2612 41.3256 82.524 41.1319 82.7179C40.9381 82.9118 40.6754 83.0208 40.4013 83.021H16.9236C16.6494 83.021 16.3864 82.9121 16.1925 82.7182C15.9986 82.5243 15.8896 82.2613 15.8896 81.9871V78.2046C15.8973 75.5709 16.9471 73.0472 18.8097 71.1851C20.6724 69.323 23.1964 68.274 25.8301 68.2672H31.4977C34.1307 68.275 36.6536 69.3244 38.5154 71.1862C40.3772 73.048 41.4266 75.5709 41.4344 78.2039ZM39.3674 80.9532V78.2039C39.3606 76.1185 38.5294 74.1205 37.0551 72.6456C35.5808 71.1708 33.5831 70.3388 31.4977 70.3312H25.8301C23.7441 70.3378 21.7455 71.1693 20.2703 72.6443C18.7952 74.1193 17.9635 76.1179 17.9567 78.2039V80.9532H39.3674ZM51.3181 19.0453H23.0066C22.979 19.0444 22.952 19.0535 22.9308 19.0711C22.9253 19.0755 22.9215 19.0816 22.9202 19.0885V38.7808C22.9214 38.7877 22.9252 38.7939 22.9308 38.7982C22.952 38.8158 22.979 38.8249 23.0066 38.824H25.8749C26.1489 38.8242 26.4117 38.9332 26.6055 39.1271C26.7992 39.3209 26.908 39.5838 26.908 39.8579V43.2462L33.8248 39.0165C33.9998 38.8909 34.2098 38.8235 34.4252 38.824H51.3181C51.3456 38.8249 51.3726 38.8158 51.3939 38.7982C51.3995 38.7939 51.4033 38.7877 51.4045 38.7808V19.0885C51.4031 19.0816 51.3994 19.0755 51.3939 19.0711C51.3726 19.0535 51.3456 19.0444 51.3181 19.0453ZM74.1901 58.4828C73.5298 57.8222 72.6609 57.411 71.7313 57.3192C70.8018 57.2274 69.8692 57.4608 69.0924 57.9796C68.3157 58.4984 67.7429 59.2705 67.4716 60.1643C67.2003 61.0581 67.2474 62.0183 67.6047 62.8813C67.9621 63.7443 68.6076 64.4567 69.4313 64.8971C70.2551 65.3375 71.206 65.4786 72.1221 65.2964C73.0383 65.1142 73.8629 64.62 74.4554 63.898C75.048 63.176 75.3719 62.2708 75.3719 61.3367C75.3725 60.8067 75.2684 60.2817 75.0656 59.7919C74.8628 59.3022 74.5653 58.8573 74.1901 58.4828ZM71.3362 55.2333C72.7487 55.2329 74.1176 55.7223 75.2097 56.6182C76.3018 57.514 77.0494 58.7608 77.3253 60.1461C77.6011 61.5313 77.388 62.9694 76.7224 64.2152C76.0568 65.461 74.9797 66.4375 73.6748 66.9782C72.3699 67.5189 70.9179 67.5904 69.5662 67.1805C68.2145 66.7706 67.0468 65.9047 66.2619 64.7303C65.4771 63.556 65.1238 62.1458 65.2622 60.7401C65.4006 59.3344 66.0221 58.0202 67.0209 57.0214C67.587 56.4538 68.2596 56.0036 69.0002 55.6967C69.7407 55.3899 70.5346 55.2324 71.3362 55.2333ZM84.1102 78.2039V81.9871C84.1102 82.2613 84.0012 82.5243 83.8073 82.7182C83.6134 82.9121 83.3504 83.021 83.0762 83.021H59.5955C59.3219 83.02 59.0599 82.9106 58.8669 82.7168C58.6738 82.523 58.5654 82.2606 58.5654 81.9871V78.2046C58.573 75.5715 59.6223 73.0484 61.4841 71.1864C63.3459 69.3245 65.8689 68.275 68.5021 68.2672H74.1697C76.8033 68.274 79.3272 69.3229 81.1898 71.1848C83.0524 73.0468 84.1024 75.5702 84.1102 78.2039ZM82.0431 80.9532V78.2039C82.0363 76.1179 81.2046 74.1193 79.7295 72.6443C78.2544 71.1693 76.2557 70.3378 74.1697 70.3312H68.5021C66.4162 70.338 64.4177 71.1696 62.9428 72.6446C61.4678 74.1195 60.6362 76.118 60.6294 78.2039V80.9532H82.0431ZM53.4746 24.4545V19.0885C53.4741 18.8071 53.4163 18.5287 53.3048 18.2702C53.1932 18.0118 53.0302 17.7788 52.8257 17.5854C52.4203 17.1962 51.8801 16.979 51.3181 16.979H23.0066C22.4446 16.979 21.9043 17.1962 21.4989 17.5854C21.2944 17.7788 21.1314 18.0118 21.0199 18.2702C20.9083 18.5287 20.8505 18.8071 20.85 19.0885V38.7808C20.8506 39.0623 20.9084 39.3408 21.02 39.5994C21.1315 39.8579 21.2944 40.091 21.4989 40.2846C21.9043 40.6739 22.4446 40.8912 23.0066 40.891H24.8409V45.0874C24.8414 45.2703 24.8904 45.4499 24.983 45.6077C25.0757 45.7655 25.2086 45.8958 25.3681 45.9853C25.5277 46.0749 25.7082 46.1204 25.8911 46.1172C26.074 46.1141 26.2529 46.0624 26.4093 45.9674L34.7087 40.8888H46.2743V46.2517C46.2751 46.8111 46.4977 47.3474 46.8933 47.743C47.2889 48.1386 47.8252 48.3611 48.3846 48.362H64.2906L72.2299 53.4254C72.3855 53.5246 72.5649 53.5802 72.7493 53.5862C72.9338 53.5923 73.1164 53.5487 73.2782 53.46C73.44 53.3713 73.575 53.2407 73.669 53.0819C73.763 52.9232 73.8126 52.742 73.8126 52.5575V48.3604H75.5295C76.089 48.3596 76.6254 48.1371 77.0211 47.7415C77.4168 47.3459 77.6396 46.8097 77.6406 46.2501V26.5617C77.639 26.0033 77.4164 25.4683 77.0216 25.0734C76.6268 24.6786 76.0917 24.4561 75.5333 24.4545H53.4746ZM48.3414 40.8873V46.2501C48.3423 46.2613 48.3471 46.2718 48.355 46.2797C48.3629 46.2877 48.3734 46.2925 48.3846 46.2934H64.5839C64.8131 46.293 65.0358 46.369 65.2169 46.5094L71.7494 50.6784V47.3265C71.7496 47.0524 71.8586 46.7896 72.0525 46.5959C72.2463 46.4022 72.5092 46.2934 72.7833 46.2934H75.5333C75.539 46.2932 75.5446 46.2919 75.5498 46.2896C75.5551 46.2872 75.5597 46.2839 75.5636 46.2797C75.5714 46.2718 75.576 46.2612 75.5765 46.2501V26.5617C75.576 26.5506 75.5714 26.5401 75.5636 26.5321C75.5597 26.528 75.5551 26.5246 75.5498 26.5223C75.5446 26.52 75.539 26.5187 75.5333 26.5185H53.4754V38.7808C53.4748 39.0623 53.417 39.3408 53.3054 39.5994C53.1939 39.8579 53.0309 40.091 52.8265 40.2846C52.4211 40.6739 51.8808 40.8912 51.3188 40.891L48.3414 40.8873ZM45.8309 26.1539C45.8309 26.4281 45.7219 26.6911 45.528 26.885C45.3341 27.0789 45.0712 27.1878 44.797 27.1878C44.5227 27.1878 44.2598 27.0789 44.0659 26.885C43.872 26.6911 43.763 26.4281 43.763 26.1539C43.7632 25.7231 43.6021 25.3079 43.3114 24.99C43.0207 24.6721 42.6215 24.4745 42.1924 24.4363C42.0892 24.4524 41.9841 24.4524 41.8809 24.4363C41.4522 24.4751 41.0536 24.6728 40.7634 24.9907C40.4732 25.3085 40.3124 25.7235 40.3126 26.1539C40.3083 26.3503 40.3438 26.5456 40.4169 26.7279C40.49 26.9103 40.5991 27.076 40.7378 27.2151C41.1488 27.5847 41.6625 27.8205 42.2106 27.8913L42.2379 27.8966C43.1907 28.0251 44.0775 28.4542 44.7697 29.1215C45.1083 29.4535 45.3768 29.8501 45.5591 30.2879C45.7414 30.7257 45.8338 31.1957 45.8309 31.6699C45.8302 32.4952 45.5605 33.2978 45.0628 33.9561C44.5651 34.6144 43.8663 35.0926 43.0725 35.3182V35.8374C43.0762 35.9755 43.0523 36.1129 43.002 36.2416C42.9517 36.3703 42.8762 36.4876 42.7799 36.5865C42.6835 36.6855 42.5683 36.7642 42.4411 36.8179C42.3138 36.8717 42.1771 36.8993 42.0389 36.8993C41.9008 36.8993 41.7641 36.8717 41.6368 36.8179C41.5096 36.7642 41.3944 36.6855 41.298 36.5865C41.2017 36.4876 41.1262 36.3703 41.0759 36.2416C41.0256 36.1129 41.0017 35.9755 41.0054 35.8374V35.3182C40.2121 35.0921 39.5141 34.6137 39.0171 33.9554C38.52 33.2971 38.251 32.4948 38.2508 31.6699C38.2471 31.5318 38.271 31.3944 38.3213 31.2657C38.3716 31.1371 38.4471 31.0198 38.5434 30.9208C38.6398 30.8218 38.755 30.7431 38.8822 30.6894C39.0095 30.6357 39.1462 30.608 39.2844 30.608C39.4225 30.608 39.5592 30.6357 39.6865 30.6894C39.8137 30.7431 39.9289 30.8218 40.0253 30.9208C40.1216 31.0198 40.1972 31.1371 40.2474 31.2657C40.2977 31.3944 40.3216 31.5318 40.3179 31.6699C40.3178 32.1002 40.4787 32.5149 40.7689 32.8326C41.0591 33.1503 41.4577 33.348 41.8862 33.3868C41.9895 33.3716 42.0945 33.3716 42.1978 33.3868C42.6263 33.348 43.0248 33.1503 43.315 32.8326C43.6052 32.5149 43.7661 32.1002 43.7661 31.6699C43.7669 31.4675 43.7271 31.267 43.6489 31.0803C43.5708 30.8936 43.456 30.7244 43.3113 30.5829C42.9357 30.23 42.4581 30.005 41.9468 29.9401C41.9188 29.9401 41.8915 29.9341 41.8642 29.9295C40.8942 29.788 39.9912 29.352 39.2772 28.6803C38.9437 28.3506 38.6804 27.9568 38.5032 27.5226C38.326 27.0884 38.2386 26.6228 38.2463 26.1539C38.2465 25.3285 38.5159 24.5257 39.0135 23.8672C39.5111 23.2087 40.2099 22.7304 41.0039 22.5049V21.9856C41.0112 21.7164 41.1233 21.4606 41.3163 21.2727C41.5093 21.0848 41.7681 20.9797 42.0374 20.9797C42.3068 20.9797 42.5655 21.0848 42.7586 21.2727C42.9516 21.4606 43.0637 21.7164 43.071 21.9856V22.5049C43.8652 22.7302 44.5644 23.2084 45.0624 23.8669C45.5605 24.5254 45.8302 25.3283 45.8309 26.1539Z" fill="#E4322B"/>
</svg>
