<svg width="100" height="101" viewBox="0 0 100 101" fill="none" xmlns="http://www.w3.org/2000/svg">
<rect y="0.770508" width="100" height="100" rx="4" fill="#FFF0F0"/>
<path d="M80.5133 74.6795L66.9492 60.9253C66.6255 60.5966 66.0966 60.593 65.7679 60.9168L65.5878 61.094L62.2332 57.6994C61.9095 57.3714 61.3806 57.3685 61.0526 57.6915L60.9404 57.8023L58.6807 55.524C61.773 51.6363 63.6239 46.7188 63.6239 41.3768C63.6239 28.8239 53.4116 18.6116 40.8587 18.6116C28.3059 18.6116 18.0942 28.8239 18.0942 41.3768C18.0942 53.9296 28.3066 64.142 40.8594 64.142C46.0843 64.142 50.9032 62.3711 54.7494 59.4003L57.0098 61.6793L56.8919 61.7951C56.734 61.9509 56.6447 62.1631 56.6432 62.3847C56.6418 62.6062 56.7283 62.8199 56.8841 62.9771L60.2372 66.3703L60.0507 66.5546C59.8927 66.7104 59.8034 66.922 59.802 67.1435C59.8006 67.3651 59.887 67.578 60.0428 67.736L73.6076 81.4901C74.5145 82.4092 75.7287 82.9209 77.0272 82.9294C77.0387 82.9294 77.0508 82.9294 77.0622 82.9294C78.3479 82.9294 79.5556 82.4356 80.4661 81.5373C81.3852 80.6304 81.8968 79.4162 81.9054 78.1177C81.914 76.8199 81.4202 75.5986 80.5133 74.6795ZM19.7651 41.3768C19.7651 29.7451 29.2278 20.2824 40.8594 20.2824C52.4911 20.2824 61.9538 29.7451 61.9538 41.3768C61.9538 53.0084 52.4904 62.4711 40.8587 62.4711C29.2271 62.4711 19.7651 53.0084 19.7651 41.3768ZM56.0379 58.3269C56.5796 57.8416 57.097 57.3306 57.5901 56.7968L59.7512 58.9758L58.199 60.5066L56.0379 58.3269ZM58.6607 62.3975L61.5229 59.5754L61.6322 59.4674L64.3993 62.2675L61.4285 65.1975L58.6607 62.3975ZM79.2927 80.3488C78.6966 80.9363 77.9048 81.2593 77.0615 81.2593C77.0537 81.2593 77.0465 81.2593 77.0387 81.2593C76.1861 81.2536 75.3899 80.9184 74.7968 80.3174L61.8187 67.1578L66.346 62.6934L79.3241 75.853C80.5547 77.1007 80.5412 79.1175 79.2927 80.3488ZM40.8587 22.227C30.2998 22.227 21.7089 30.8178 21.7089 41.3768C21.7089 51.9357 30.2998 60.5266 40.8587 60.5266C51.4177 60.5266 60.0085 51.9357 60.0085 41.3768C60.0085 30.8178 51.4184 22.227 40.8587 22.227ZM40.8587 58.8557C31.2209 58.8557 23.3798 51.0146 23.3798 41.3768C23.3798 31.739 31.2209 23.8978 40.8587 23.8978C50.4965 23.8978 58.3377 31.739 58.3377 41.3768C58.3377 51.0146 50.4972 58.8557 40.8587 58.8557Z" fill="#E4322B"/>
<path d="M49.6563 38.3145C49.5557 33.8168 45.9591 30.1116 41.4735 29.8783C41.3206 29.8702 41.1637 29.8662 41.0108 29.8662C36.3562 29.8662 32.482 33.6438 32.3654 38.2944C32.3654 38.2944 32.3654 38.2944 32.3654 38.2985C32.3654 38.3025 32.3654 38.3065 32.3654 38.3105V38.3145C32.3613 38.3829 32.3613 38.4473 32.3613 38.5157C32.3613 41.4646 33.8498 44.1841 36.3401 45.7893C36.4447 45.8577 36.5131 45.9543 36.5332 46.0629L36.8027 47.664C36.6418 47.7284 36.497 47.825 36.3683 47.9497C36.1188 48.1951 35.9861 48.525 35.9861 48.875C35.9861 49.225 36.1269 49.5468 36.3522 49.7801C36.1269 50.0135 35.9861 50.3353 35.9861 50.6853C35.9861 51.4054 36.5734 51.9928 37.2935 51.9928H37.8326C38.0257 53.1313 39.0154 54.0043 40.2102 54.0043H41.8194C43.0143 54.0043 44.0039 53.1313 44.197 51.9928H44.7361C45.4562 51.9928 46.0436 51.4054 46.0436 50.6853C46.0436 50.3353 45.9028 50.0135 45.6775 49.7801C45.9149 49.5347 46.0436 49.2169 46.0436 48.875C46.0436 48.3359 45.7057 47.8692 45.2269 47.6681L45.4965 46.0669C45.5166 45.9543 45.585 45.8537 45.6896 45.7853C48.2442 44.1359 49.7287 41.3399 49.6563 38.3145ZM41.4131 33.3139V30.6829C41.4212 30.6829 41.4252 30.6829 41.4332 30.6829C45.3637 30.8881 48.5379 34.03 48.8316 37.9203H46.5505V37.3772C46.5505 37.0111 46.4057 36.6651 46.1482 36.4036C45.8867 36.1421 45.5407 36.0013 45.1706 36.0013C44.4103 36.0013 43.7907 36.6168 43.7907 37.3772V37.9203H41.4131V35.2691C41.4131 35.0479 41.2321 34.8668 41.0108 34.8668H40.1298C39.9769 34.8668 39.8321 34.8065 39.7234 34.6979C39.6148 34.5892 39.5545 34.4444 39.5545 34.2915C39.5545 33.9737 39.812 33.7162 40.1298 33.7162H41.0108C41.2321 33.7162 41.4131 33.5352 41.4131 33.3139ZM40.6085 30.6829V32.9116H40.1298C39.3694 32.9116 38.7499 33.5312 38.7499 34.2915C38.7499 34.6616 38.8947 35.0076 39.1522 35.2691C39.4137 35.5306 39.7597 35.6714 40.1298 35.6714H40.6085V37.9203H37.8286C37.6073 37.9203 37.4263 38.1013 37.4263 38.3226V39.1433C37.4263 39.2962 37.366 39.441 37.2573 39.5496C37.1487 39.6582 37.0039 39.7186 36.851 39.7186C36.5332 39.7186 36.2757 39.4611 36.2757 39.1433V38.3226C36.2757 38.1013 36.0947 37.9203 35.8734 37.9203H33.1901C33.4837 34.018 36.6981 30.884 40.6085 30.6829ZM33.17 38.7249H35.4711V39.1433C35.4711 39.9036 36.0907 40.5232 36.851 40.5232C37.2211 40.5232 37.5671 40.3784 37.8286 40.1209C38.0901 39.8594 38.2309 39.5134 38.2309 39.1433V38.7249H40.6085V41.36C40.6085 41.5812 40.7895 41.7623 41.0108 41.7623H41.8919C42.2097 41.7623 42.4671 42.0197 42.4671 42.3376C42.4671 42.4904 42.4068 42.6353 42.2982 42.7439C42.1896 42.8525 42.0447 42.9129 41.8919 42.9129H41.0108C40.7895 42.9129 40.6085 43.0939 40.6085 43.3152V47.5675H37.5993L37.3257 45.9301C37.2654 45.5962 37.0723 45.3025 36.7786 45.1134C34.574 43.6933 33.2383 41.3157 33.17 38.7249ZM41.8154 53.1997H40.2062C39.4579 53.1997 38.8263 52.6848 38.6493 51.9928H43.3763C43.1953 52.6848 42.5637 53.1997 41.8154 53.1997ZM44.7321 51.1882H43.8269H38.1947H37.2895C37.0119 51.1882 36.7866 50.9629 36.7866 50.6853C36.7866 50.4077 37.0119 50.1824 37.2895 50.1824H44.7321C45.0097 50.1824 45.235 50.4077 45.235 50.6853C45.235 50.9629 45.0097 51.1882 44.7321 51.1882ZM45.0861 49.229C44.9896 49.3255 44.8649 49.3778 44.7321 49.3778H37.2895C37.0119 49.3778 36.7866 49.1526 36.7866 48.875C36.7866 48.7422 36.8389 48.6135 36.9355 48.5209C37.028 48.4284 37.1447 48.3761 37.2573 48.3721H41.0108H44.7522C45.0177 48.3801 45.235 48.6054 45.235 48.875C45.235 49.0077 45.1827 49.1365 45.0861 49.229ZM45.2471 45.1134C44.9574 45.2985 44.7562 45.5962 44.6999 45.9341L44.4223 47.5675H41.4131V43.7175H41.8919C42.262 43.7175 42.608 43.5726 42.8694 43.3152C43.1309 43.0537 43.2717 42.7077 43.2717 42.3376C43.2717 41.5772 42.6522 40.9577 41.8919 40.9577H41.4131V38.7249H44.193C44.4143 38.7249 44.5953 38.5439 44.5953 38.3226V37.3772C44.5953 37.0634 44.8528 36.8059 45.1706 36.8059C45.3235 36.8059 45.4683 36.8663 45.5769 36.9749C45.6856 37.0835 45.7459 37.2243 45.7459 37.3772V38.3226C45.7459 38.5439 45.9269 38.7249 46.1482 38.7249H48.8517C48.7873 41.3157 47.4597 43.6853 45.2471 45.1134Z" fill="#E4322B"/>
</svg>
