<svg width="101" height="101" viewBox="0 0 101 101" fill="none" xmlns="http://www.w3.org/2000/svg">
<rect x="0.361328" y="0.47876" width="100" height="100" rx="4" fill="#FFF0F0"/>
<path d="M46.3156 31.2626H54.4065C54.5394 31.2627 54.6709 31.2366 54.7937 31.1858C54.9164 31.135 55.0279 31.0605 55.1218 30.9666C55.2158 30.8726 55.2903 30.7611 55.3411 30.6384C55.3919 30.5156 55.418 30.3841 55.4179 30.2513V22.1603C55.418 22.0275 55.3919 21.8959 55.3411 21.7732C55.2903 21.6504 55.2158 21.5389 55.1218 21.445C55.0279 21.351 54.9164 21.2766 54.7937 21.2258C54.6709 21.175 54.5394 21.1488 54.4065 21.1489H46.3156C46.1827 21.1488 46.0512 21.175 45.9284 21.2258C45.8057 21.2766 45.6942 21.351 45.6003 21.445C45.5063 21.5389 45.4318 21.6504 45.381 21.7732C45.3302 21.8959 45.3041 22.0275 45.3042 22.1603V30.2513C45.3041 30.3841 45.3302 30.5156 45.381 30.6384C45.4318 30.7611 45.5063 30.8726 45.6003 30.9666C45.6942 31.0605 45.8057 31.135 45.9284 31.1858C46.0512 31.2366 46.1827 31.2627 46.3156 31.2626ZM47.3269 23.1717H53.3952V29.2399H47.3269V23.1717Z" fill="#E4322B"/>
<path d="M54.4065 69.6946H46.3156C46.1827 69.6945 46.0512 69.7206 45.9284 69.7714C45.8057 69.8222 45.6942 69.8967 45.6003 69.9906C45.5063 70.0846 45.4318 70.1961 45.381 70.3188C45.3302 70.4416 45.3041 70.5731 45.3042 70.706V78.7969C45.3041 78.9297 45.3302 79.0613 45.381 79.184C45.4318 79.3068 45.5063 79.4183 45.6003 79.5122C45.6942 79.6062 45.8057 79.6807 45.9284 79.7315C46.0512 79.7822 46.1827 79.8084 46.3156 79.8083H54.4065C54.5394 79.8084 54.6709 79.7822 54.7937 79.7315C54.9164 79.6807 55.0279 79.6062 55.1218 79.5122C55.2158 79.4183 55.2903 79.3068 55.3411 79.184C55.3919 79.0613 55.418 78.9297 55.4179 78.7969V70.706C55.418 70.5731 55.3919 70.4416 55.3411 70.3188C55.2903 70.1961 55.2158 70.0846 55.1218 69.9906C55.0279 69.8967 54.9164 69.8222 54.7937 69.7714C54.6709 69.7206 54.5394 69.6945 54.4065 69.6946ZM53.3952 77.7855H47.3269V71.7173H53.3952V77.7855Z" fill="#E4322B"/>
<path d="M71.5999 52.5011V38.3419C71.5999 38.2091 71.5738 38.0775 71.523 37.9548C71.4722 37.8321 71.3977 37.7205 71.3038 37.6266C71.2099 37.5327 71.0984 37.4582 70.9756 37.4074C70.8529 37.3566 70.7213 37.3305 70.5885 37.3306H30.1337C30.0008 37.3305 29.8693 37.3566 29.7466 37.4074C29.6238 37.4582 29.5123 37.5327 29.4184 37.6266C29.3244 37.7205 29.2499 37.8321 29.1991 37.9548C29.1483 38.0775 29.1222 38.2091 29.1223 38.3419V52.5011C29.1222 52.634 29.1483 52.7655 29.1991 52.8882C29.2499 53.011 29.3244 53.1225 29.4184 53.2164C29.5123 53.3104 29.6238 53.3849 29.7466 53.4357C29.8693 53.4865 30.0008 53.5126 30.1337 53.5125H46.3156C46.5838 53.5125 46.8411 53.4059 47.0308 53.2163C47.2204 53.0266 47.327 52.7693 47.327 52.5011C47.327 52.2329 47.2204 51.9756 47.0308 51.786C46.8411 51.5963 46.5838 51.4897 46.3156 51.4897H31.1451V39.3533H69.5771V51.4897H54.4066C54.1383 51.4897 53.8811 51.5963 53.6914 51.786C53.5017 51.9756 53.3952 52.2329 53.3952 52.5011C53.3952 52.7693 53.5017 53.0266 53.6914 53.2163C53.8811 53.4059 54.1383 53.5125 54.4066 53.5125H70.5885C70.7213 53.5126 70.8529 53.4865 70.9756 53.4357C71.0984 53.3849 71.2099 53.3104 71.3038 53.2164C71.3977 53.1225 71.4722 53.011 71.523 52.8882C71.5738 52.7655 71.5999 52.634 71.5999 52.5011Z" fill="#E4322B"/>
<path d="M40.9624 72.0137C40.7716 71.8294 40.5161 71.7275 40.251 71.7298C39.9858 71.7321 39.7321 71.8385 39.5446 72.026C39.3571 72.2135 39.2507 72.4672 39.2484 72.7323C39.2461 72.9975 39.3481 73.253 39.5323 73.4437L39.8286 73.7401H26.0881C25.2837 73.7392 24.5124 73.4193 23.9436 72.8505C23.3748 72.2816 23.0549 71.5104 23.054 70.706V30.2512C23.0549 29.4468 23.3748 28.6755 23.9436 28.1067C24.5124 27.5379 25.2837 27.218 26.0881 27.2171H42.27C42.5383 27.2171 42.7955 27.1105 42.9852 26.9209C43.1748 26.7312 43.2814 26.4739 43.2814 26.2057C43.2814 25.9375 43.1748 25.6802 42.9852 25.4906C42.7955 25.3009 42.5383 25.1943 42.27 25.1943H26.0881C24.7473 25.1956 23.4618 25.7287 22.5137 26.6768C21.5657 27.6249 21.0325 28.9104 21.0312 30.2512V70.706C21.0325 72.0468 21.5657 73.3323 22.5137 74.2804C23.4618 75.2284 24.7473 75.7616 26.0881 75.7628H39.8286L39.5323 76.0591C39.4357 76.1524 39.3586 76.264 39.3056 76.3874C39.2526 76.5108 39.2247 76.6435 39.2235 76.7778C39.2224 76.9121 39.248 77.0453 39.2988 77.1696C39.3497 77.2939 39.4248 77.4068 39.5197 77.5017C39.6147 77.5967 39.7276 77.6718 39.8519 77.7227C39.9762 77.7735 40.1094 77.7991 40.2437 77.7979C40.378 77.7968 40.5107 77.7689 40.6341 77.7159C40.7574 77.6628 40.869 77.5858 40.9623 77.4892L42.9851 75.4665C43.079 75.3726 43.1535 75.2611 43.2043 75.1384C43.2552 75.0157 43.2813 74.8842 43.2813 74.7514C43.2813 74.6186 43.2552 74.4871 43.2043 74.3644C43.1535 74.2417 43.079 74.1303 42.9851 74.0364L40.9624 72.0137Z" fill="#E4322B"/>
<path d="M74.6342 25.1941H60.8937L61.19 24.8978C61.3743 24.7071 61.4762 24.4516 61.4739 24.1864C61.4716 23.9212 61.3652 23.6676 61.1777 23.4801C60.9902 23.2925 60.7365 23.1862 60.4714 23.1839C60.2062 23.1816 59.9507 23.2835 59.76 23.4677L57.7372 25.4905C57.6433 25.5844 57.5688 25.6958 57.518 25.8185C57.4671 25.9412 57.441 26.0727 57.441 26.2055C57.441 26.3383 57.4671 26.4698 57.518 26.5925C57.5688 26.7152 57.6433 26.8267 57.7372 26.9206L59.76 28.9433C59.9507 29.1275 60.2062 29.2295 60.4714 29.2272C60.7365 29.2249 60.9902 29.1185 61.1777 28.931C61.3652 28.7435 61.4716 28.4898 61.4739 28.2246C61.4762 27.9594 61.3743 27.704 61.19 27.5132L60.8937 27.2169H74.6342C75.4386 27.2177 76.2099 27.5377 76.7787 28.1065C77.3475 28.6753 77.6674 29.4465 77.6683 30.251V70.7058C77.6674 71.5102 77.3475 72.2814 76.7787 72.8502C76.2099 73.419 75.4386 73.739 74.6342 73.7399H58.4523C58.1841 73.7399 57.9268 73.8464 57.7371 74.0361C57.5475 74.2258 57.4409 74.483 57.4409 74.7512C57.4409 75.0195 57.5475 75.2767 57.7371 75.4664C57.9268 75.6561 58.1841 75.7626 58.4523 75.7626H74.6342C75.975 75.7614 77.2605 75.2282 78.2086 74.2801C79.1567 73.3321 79.6898 72.0465 79.6911 70.7058V30.251C79.6898 28.9102 79.1567 27.6247 78.2086 26.6766C77.2605 25.7285 75.975 25.1953 74.6342 25.1941Z" fill="#E4322B"/>
<path d="M63.5088 58.5697C63.5088 58.4369 63.4827 58.3053 63.4319 58.1826C63.3811 58.0599 63.3066 57.9483 63.2127 57.8544C63.1188 57.7605 63.0072 57.686 62.8845 57.6352C62.7618 57.5844 62.6302 57.5583 62.4974 57.5583H38.2245C37.9563 57.5583 37.699 57.6649 37.5094 57.8546C37.3197 58.0442 37.2131 58.3015 37.2131 58.5697C37.2131 58.838 37.3197 59.0952 37.5094 59.2849C37.699 59.4745 37.9563 59.5811 38.2245 59.5811H62.4974C62.6302 59.5812 62.7618 59.5551 62.8845 59.5043C63.0072 59.4535 63.1188 59.379 63.2127 59.285C63.3066 59.1911 63.3811 59.0796 63.4319 58.9568C63.4827 58.8341 63.5088 58.7026 63.5088 58.5697Z" fill="#E4322B"/>
<path d="M42.2704 61.6035C42.0022 61.6035 41.7449 61.7101 41.5553 61.8997C41.3656 62.0894 41.259 62.3467 41.259 62.6149C41.259 62.8831 41.3656 63.1404 41.5553 63.33C41.7449 63.5197 42.0022 63.6263 42.2704 63.6263H58.4523C58.7206 63.6263 58.9778 63.5197 59.1675 63.33C59.3571 63.1404 59.4637 62.8831 59.4637 62.6149C59.4637 62.3467 59.3571 62.0894 59.1675 61.8997C58.9778 61.7101 58.7206 61.6035 58.4523 61.6035H42.2704Z" fill="#E4322B"/>
<path d="M50.361 53.513C50.9195 53.513 51.3723 53.0602 51.3723 52.5016C51.3723 51.943 50.9195 51.4902 50.361 51.4902C49.8024 51.4902 49.3496 51.943 49.3496 52.5016C49.3496 53.0602 49.8024 53.513 50.361 53.513Z" fill="#E4322B"/>
</svg>
