<svg width="100" height="100" viewBox="0 0 100 100" fill="none" xmlns="http://www.w3.org/2000/svg">
<rect width="100" height="100" rx="5" fill="#FFF0F0"/>
<path d="M80.256 44.9959L73.4112 44.0528C72.8418 41.802 71.9481 39.646 70.7583 37.6524L74.933 32.1412C75.0585 31.9754 75.1199 31.7698 75.1057 31.5623C75.0915 31.3547 75.0028 31.1594 74.8558 31.0122L68.9851 25.1414C68.8379 24.9945 68.6425 24.9057 68.435 24.8916C68.2275 24.8774 68.0218 24.9387 67.856 25.0643L62.3449 29.239C60.3513 28.0493 58.1956 27.1555 55.9451 26.5854L55.0041 19.7433C54.9756 19.5373 54.8736 19.3486 54.7169 19.212C54.5601 19.0753 54.3592 19 54.1512 19H45.8488C45.6408 19 45.4399 19.0753 45.2831 19.212C45.1264 19.3486 45.0244 19.5373 44.9959 19.7433L44.0528 26.5888C41.8022 27.1583 39.6463 28.0522 37.653 29.2424L32.1419 25.067C31.9761 24.9415 31.7705 24.8801 31.563 24.8943C31.3554 24.9085 31.16 24.9972 31.0128 25.1442L25.1421 31.0149C24.9952 31.1621 24.9064 31.3575 24.8922 31.565C24.8781 31.7725 24.9394 31.9782 25.065 32.144L29.2403 37.6551C28.0501 39.6484 27.1562 41.8042 26.5867 44.0549L19.744 44.9959C19.5379 45.0242 19.349 45.1262 19.2122 45.2829C19.0754 45.4397 19.0001 45.6407 19 45.8488V54.1512C19.0001 54.3593 19.0754 54.5603 19.2122 54.7171C19.349 54.8738 19.5379 54.9758 19.744 55.0041L26.5888 55.9472C27.1581 58.1978 28.0518 60.3536 29.2417 62.347L25.067 67.8581C24.9415 68.0239 24.8801 68.2295 24.8943 68.4371C24.9085 68.6446 24.9972 68.8399 25.1442 68.9872L31.0149 74.8579C31.1621 75.0048 31.3575 75.0936 31.565 75.1078C31.7725 75.1219 31.9782 75.0606 32.144 74.935L37.6551 70.7597C39.6485 71.9499 41.8043 72.844 44.0549 73.414L44.998 80.2581C45.0267 80.4635 45.1285 80.6516 45.2848 80.7879C45.4411 80.9242 45.6414 80.9995 45.8488 81H54.1512C54.3592 81 54.5601 80.9247 54.7169 80.788C54.8736 80.6514 54.9756 80.4627 55.0041 80.2567L55.9472 73.4112C58.1978 72.8416 60.3536 71.9478 62.347 70.7576L67.8581 74.933C68.0239 75.0585 68.2295 75.1199 68.4371 75.1057C68.6446 75.0915 68.8399 75.0028 68.9872 74.8558L74.8579 68.9851C75.0048 68.8379 75.0936 68.6425 75.1078 68.435C75.1219 68.2275 75.0606 68.0218 74.935 67.856L70.7604 62.3449C71.9502 60.3515 72.8438 58.1957 73.4133 55.9451L80.2581 55.002C80.4635 54.9733 80.6516 54.8715 80.7879 54.7152C80.9242 54.5589 80.9995 54.3586 81 54.1512V45.8488C80.9999 45.6407 80.9246 45.4397 80.7878 45.2829C80.651 45.1262 80.4621 45.0242 80.256 44.9959ZM79.2778 53.4004L72.5956 54.3214C72.4222 54.3453 72.2603 54.4215 72.1313 54.5398C72.0023 54.658 71.9124 54.8128 71.8736 54.9834C71.3148 57.4497 70.3396 59.8027 68.9899 61.9412C68.8966 62.0895 68.8507 62.2627 68.8584 62.4377C68.866 62.6127 68.9268 62.7812 69.0326 62.9208L73.1095 68.2996L68.3003 73.1088L62.9208 69.0319C62.7811 68.9263 62.6125 68.8657 62.4376 68.8582C62.2626 68.8507 62.0894 68.8966 61.9412 68.9899C59.8028 70.3398 57.4498 71.315 54.9834 71.8736C54.8127 71.9123 54.6579 72.0022 54.5397 72.1312C54.4214 72.2602 54.3452 72.4222 54.3214 72.5956L53.4004 79.2778H46.5996L45.6793 72.5956C45.6552 72.4222 45.5789 72.2602 45.4605 72.1312C45.3422 72.0022 45.1873 71.9124 45.0166 71.8736C42.5504 71.3142 40.1975 70.3388 38.0588 68.9892C37.9106 68.8959 37.7374 68.85 37.5624 68.8575C37.3875 68.865 37.2189 68.9256 37.0792 69.0312L31.7004 73.1081L26.8912 68.299L30.9674 62.9201C31.0732 62.7807 31.1341 62.6122 31.1417 62.4373C31.1493 62.2624 31.1034 62.0893 31.0101 61.9412C29.6603 59.8027 28.6851 57.4498 28.1264 54.9834C28.0876 54.8128 27.9977 54.658 27.8687 54.5398C27.7397 54.4215 27.5778 54.3453 27.4044 54.3214L20.7222 53.4004V46.5996L27.4044 45.6786C27.5778 45.6547 27.7397 45.5785 27.8687 45.4602C27.9977 45.342 28.0876 45.1872 28.1264 45.0166C28.6855 42.5504 29.6607 40.1974 31.0101 38.0588C31.1033 37.9107 31.1492 37.7377 31.1417 37.5628C31.1342 37.3879 31.0736 37.2195 30.9681 37.0799L26.8905 31.7004L31.7004 26.8912L37.0792 30.9688C37.2189 31.0744 37.3875 31.135 37.5624 31.1425C37.7374 31.15 37.9106 31.1041 38.0588 31.0108C40.1973 29.6612 42.5503 28.686 45.0166 28.1271C45.1872 28.0883 45.342 27.9984 45.4602 27.8694C45.5785 27.7404 45.6547 27.5785 45.6786 27.4051L46.5996 20.7229H53.4004L54.3214 27.4051C54.3453 27.5785 54.4215 27.7404 54.5398 27.8694C54.658 27.9984 54.8128 28.0883 54.9834 28.1271C57.4497 28.6862 59.8027 29.6616 61.9412 31.0115C62.0894 31.1048 62.2626 31.1507 62.4376 31.1432C62.6125 31.1357 62.7811 31.0751 62.9208 30.9694L68.3003 26.8919L73.1088 31.701L69.0326 37.0806C68.9268 37.22 68.8659 37.3884 68.8583 37.5634C68.8507 37.7383 68.8966 37.9114 68.9899 38.0595C70.3395 40.198 71.3147 42.551 71.8736 45.0173C71.9124 45.1879 72.0023 45.3427 72.1313 45.4609C72.2603 45.5792 72.4222 45.6554 72.5956 45.6793L79.2778 46.6003V53.4004ZM66.543 50C66.5445 47.4257 65.9453 44.8866 64.793 42.5847C63.6406 40.2827 61.967 38.2815 59.9051 36.7401C57.8433 35.1988 55.4503 34.1599 52.9163 33.7061C50.3824 33.2523 47.7775 33.3961 45.3089 34.1261C42.8403 34.8561 40.5761 36.1521 38.6965 37.911C36.8169 39.67 35.3737 41.8433 34.4818 44.2581C33.5898 46.6729 33.2737 49.2626 33.5587 51.821C33.8436 54.3795 34.7217 56.8361 36.123 58.9955C36.1554 59.062 36.1961 59.124 36.2443 59.1801C37.7541 61.4445 39.7997 63.3011 42.1993 64.5852C44.5989 65.8693 47.2784 66.5412 50 66.5412C52.7216 66.5412 55.4011 65.8693 57.8007 64.5852C60.2003 63.3011 62.2459 61.4445 63.7557 59.1801C63.8042 59.1245 63.8449 59.0626 63.877 58.9962C65.6206 56.3201 66.547 53.194 66.543 50ZM50 35.1792C52.5689 35.1788 55.0938 35.8462 57.3269 37.1161C59.56 38.3859 61.4245 40.2145 62.7376 42.4225C64.0507 44.6305 64.7671 47.1419 64.8166 49.7103C64.8661 52.2787 64.247 54.8159 63.02 57.0728C61.4515 55.13 59.468 53.5629 57.2151 52.4863C54.9622 51.4097 52.4969 50.8509 50 50.8509C47.5031 50.8509 45.0378 51.4097 42.7849 52.4863C40.532 53.5629 38.5485 55.13 36.98 57.0728C35.753 54.8159 35.1339 52.2787 35.1834 49.7103C35.2329 47.1419 35.9493 44.6305 37.2624 42.4225C38.5755 40.2145 40.44 38.3859 42.6731 37.1161C44.9062 35.8462 47.4311 35.1788 50 35.1792ZM50 64.8208C47.6439 64.8205 45.3219 64.2582 43.2267 63.1805C41.1316 62.1028 39.3238 60.5408 37.9534 58.6242C39.351 56.7467 41.1681 55.2218 43.2597 54.1713C45.3513 53.1208 47.6594 52.5738 50 52.5738C52.3406 52.5738 54.6487 53.1208 56.7403 54.1713C58.8319 55.2218 60.649 56.7467 62.0466 58.6242C60.6762 60.5408 58.8684 62.1028 56.7733 63.1805C54.6781 64.2582 52.3561 64.8205 50 64.8208ZM50 48.8888C51.1147 48.889 52.2044 48.5585 53.1313 47.9393C54.0583 47.3201 54.7807 46.4399 55.2074 45.4101C55.634 44.3802 55.7457 43.247 55.5282 42.1537C55.3108 41.0604 54.774 40.0561 53.9858 39.2679C53.1976 38.4797 52.1933 37.9429 51.1 37.7255C50.0067 37.508 48.8735 37.6197 47.8436 38.0464C46.8138 38.473 45.9336 39.1955 45.3144 40.1224C44.6952 41.0493 44.3648 42.139 44.3649 43.2537C44.3665 44.7477 44.9608 46.1801 46.0172 47.2365C47.0736 48.293 48.506 48.8872 50 48.8888ZM50 39.3401C50.7741 39.34 51.5308 39.5694 52.1745 39.9994C52.8181 40.4293 53.3199 41.0405 53.6162 41.7556C53.9125 42.4707 53.9901 43.2576 53.8392 44.0168C53.6882 44.776 53.3155 45.4734 52.7683 46.0208C52.221 46.5682 51.5236 46.941 50.7644 47.092C50.0053 47.2431 49.2183 47.1656 48.5032 46.8695C47.788 46.5733 47.1768 46.0716 46.7467 45.428C46.3167 44.7844 46.0871 44.0278 46.0871 43.2537C46.0882 42.2162 46.5008 41.2215 47.2343 40.4878C47.9679 39.7542 48.9625 39.3414 50 39.3401Z" fill="#E4322B"/>
</svg>
