<svg width="585" height="436" viewBox="0 0 585 436" fill="none" xmlns="http://www.w3.org/2000/svg">
<g clip-path="url(#clip0_39_794)">
<path d="M585 383.117H0V383.409H585V383.117Z" fill="#EBEBEB"/>
<path d="M526.383 401.942H487.633V402.234H526.383V401.942Z" fill="#EBEBEB"/>
<path d="M387.527 405.124H377.36V405.417H387.527V405.124Z" fill="#EBEBEB"/>
<path d="M486.463 391.084H464.01V391.377H486.463V391.084Z" fill="#EBEBEB"/>
<path d="M111.91 393.05H61.3782V393.342H111.91V393.05Z" fill="#EBEBEB"/>
<path d="M129.741 393.05H122.335V393.342H129.741V393.05Z" fill="#EBEBEB"/>
<path d="M263.425 397.987H153.82V398.28H263.425V397.987Z" fill="#EBEBEB"/>
<path d="M277.302 330.935H51.3748C47.6893 330.935 44.6941 327.939 44.6941 324.254V6.6807C44.6941 2.9952 47.6893 0 51.3748 0H277.302C280.987 0 283.982 2.9952 283.982 6.6807V324.254C283.982 327.939 280.987 330.935 277.302 330.935ZM51.3748 0.2925C47.8531 0.2925 44.9866 3.159 44.9866 6.6807V324.254C44.9866 327.776 47.8531 330.642 51.3748 330.642H277.302C280.823 330.642 283.69 327.776 283.69 324.254V6.6807C283.69 3.159 280.823 0.2925 277.302 0.2925H51.3748Z" fill="#EBEBEB"/>
<path d="M530.373 330.935H304.446C300.76 330.935 297.765 327.939 297.765 324.254V6.6807C297.765 2.9952 300.76 0 304.446 0H530.373C534.058 0 537.053 2.9952 537.053 6.6807V324.254C537.053 327.939 534.058 330.935 530.373 330.935ZM304.446 0.2925C300.924 0.2925 298.057 3.159 298.057 6.6807V324.254C298.057 327.776 300.924 330.642 304.446 330.642H530.373C533.894 330.642 536.761 327.776 536.761 324.254V6.6807C536.761 3.159 533.894 0.2925 530.373 0.2925H304.446Z" fill="#EBEBEB"/>
<path d="M475.839 135.907C475.839 135.907 477.524 124.816 469.427 117.69C461.331 110.577 462.045 106.341 464.361 105.791C466.678 105.242 468.807 112.355 472.364 114.309C472.364 114.309 472.481 104.165 468.866 100.433C465.25 96.7005 463.355 87.0714 466.795 86.9076C470.235 86.7438 470.586 92.6172 471.299 96.7941C472.013 100.971 475.839 106.833 475.839 106.833C475.839 106.833 476.588 97.7652 478.928 94.0212C481.268 90.2889 475.032 81.7479 477.442 78.0156C479.852 74.2833 484.111 81.3969 483.76 89.3997C483.409 97.4025 478.062 105.944 479.314 114.297C479.314 114.297 481.665 108.424 483.783 107.897C485.901 107.359 488.03 103.487 489.458 102.047C490.885 100.608 492.664 105.593 489.458 110.214C486.252 114.836 478.074 127.214 479.314 137.218L475.851 135.907H475.839Z" fill="#E6E6E6"/>
<path d="M470.995 130.865L468.339 147.502C467.52 152.638 471.487 157.295 476.693 157.295H479.525C484.731 157.295 488.697 152.638 487.878 147.502L485.222 130.865H470.995Z" fill="#E6E6E6"/>
<path d="M511.079 151.141H323.739V160.77H511.079V151.141Z" fill="#E0E0E0"/>
<path d="M340.61 115.666H332.362V151.152H340.61V115.666Z" fill="#EBEBEB"/>
<path d="M380.519 115.666H372.271V151.152H380.519V115.666Z" fill="#EBEBEB"/>
<path d="M425.822 114.765L417.694 116.166L423.722 151.136L431.85 149.735L425.822 114.765Z" fill="#EBEBEB"/>
<path d="M350.836 120.335H342.588V151.141H350.836V120.335Z" fill="#EBEBEB"/>
<path d="M369.814 120.335H361.565V151.141H369.814V120.335Z" fill="#EBEBEB"/>
<path d="M417.69 120.335H409.441V151.141H417.69V120.335Z" fill="#EBEBEB"/>
<path d="M391.364 119.262L383.312 121.051L389.995 151.124L398.047 149.334L391.364 119.262Z" fill="#EBEBEB"/>
<path d="M357.985 113.9H353.855V151.141H357.985V113.9Z" fill="#EBEBEB"/>
<path d="M407.078 113.9H402.948V151.141H407.078V113.9Z" fill="#EBEBEB"/>
<path d="M323.739 232.619L511.079 232.619V222.99L323.739 222.99V232.619Z" fill="#E0E0E0"/>
<path d="M494.208 223.002H502.457V187.516H494.208V223.002Z" fill="#EBEBEB"/>
<path d="M454.299 223.002H462.548V187.516H454.299V223.002Z" fill="#EBEBEB"/>
<path d="M402.965 221.601L411.093 223.003L417.121 188.032L408.993 186.631L402.965 221.601Z" fill="#EBEBEB"/>
<path d="M483.982 223.002H492.231V192.196H483.982V223.002Z" fill="#EBEBEB"/>
<path d="M465.017 223.002H473.265V192.196H465.017V223.002Z" fill="#EBEBEB"/>
<path d="M417.128 223.002H425.377V192.196H417.128V223.002Z" fill="#EBEBEB"/>
<path d="M436.803 221.19L444.855 222.98L451.539 192.907L443.487 191.118L436.803 221.19Z" fill="#EBEBEB"/>
<path d="M476.834 223.002H480.964V185.761H476.834V223.002Z" fill="#EBEBEB"/>
<path d="M427.752 223.002H431.882V185.761H427.752V223.002Z" fill="#EBEBEB"/>
<path d="M341.71 222.674H381.923V194.91H341.71V222.674Z" fill="#EBEBEB"/>
<path d="M153.645 233.848L155.844 248.414L184.193 246.835L184.755 232.116C193.846 229.694 202.55 225.611 210.366 219.831L222.183 228.548L241.114 207.383L231.134 196.607C236.012 188.195 239.09 179.08 240.482 169.79L255.048 167.591L253.469 139.242L238.75 138.68C236.328 129.589 232.245 120.884 226.465 113.069L235.182 101.252L214.016 82.3212L203.241 92.3013C194.829 87.4224 185.714 84.3336 176.424 82.9413L174.225 68.3748L145.876 69.9543L145.314 84.6729C136.235 87.0948 127.518 91.1781 119.703 96.9579L107.886 88.2414L88.9552 109.407L98.9353 120.182C94.0681 128.595 90.9793 137.709 89.5753 146.999L75.0088 149.198L76.5883 177.548L91.3069 178.109C93.7288 187.188 97.8121 195.905 103.592 203.72L94.8754 215.537L116.041 234.468L126.816 224.488C135.229 229.367 144.331 232.444 153.633 233.848H153.645ZM139.406 187.048C123.575 172.891 122.218 148.59 136.375 132.772C150.532 116.942 174.833 115.584 190.652 129.741C206.482 143.898 207.839 168.199 193.682 184.018C179.525 199.848 155.224 201.193 139.406 187.048Z" fill="#F0F0F0"/>
<path d="M230.303 63.4725L235.404 56.0781L231.847 53.0946C233.041 50.2632 233.649 47.2797 233.719 44.3079L238.2 43.0443L236.574 34.2108L231.941 34.6203C230.818 31.8708 229.191 29.2968 227.074 27.0738L229.343 23.0256L221.949 17.9244L218.966 21.4812C216.134 20.2878 213.151 19.6794 210.179 19.6092L208.915 15.1281L200.082 16.7544L200.491 21.3876C197.742 22.5108 195.168 24.1371 192.945 26.2548L188.897 23.985L183.795 31.3794L187.352 34.3629C186.159 37.1943 185.55 40.1778 185.48 43.1496L180.999 44.4132L182.625 53.2467L187.259 52.8372C188.382 55.5867 190.008 58.1607 192.126 60.3837L189.856 64.4319L197.25 69.5331L200.234 65.9763C203.065 67.1697 206.049 67.7781 209.021 67.8483L210.284 72.3294L219.118 70.7031L218.708 66.0699C221.458 64.9467 224.032 63.3204 226.255 61.2027L230.303 63.4725ZM202.703 53.7498C197.18 49.9356 195.788 42.3774 199.602 36.8433C203.416 31.3209 210.974 29.9286 216.509 33.7428C222.031 37.557 223.423 45.1152 219.609 50.6493C215.795 56.1717 208.237 57.564 202.703 53.7498Z" fill="#F0F0F0"/>
<path d="M136.036 278.636L140.599 273.534L138.2 270.937C139.37 268.913 140.119 266.713 140.459 264.479L143.969 263.952L143.582 257.119L140.037 256.979C139.452 254.791 138.47 252.697 137.077 250.813L139.172 247.97L134.07 243.407L131.473 245.805C129.449 244.635 127.249 243.887 125.015 243.547L124.488 240.037L117.655 240.423L117.515 243.968C115.327 244.553 113.233 245.536 111.349 246.929L108.506 244.834L103.943 249.935L106.341 252.533C105.171 254.557 104.423 256.757 104.083 258.991L100.573 259.518L100.959 266.351L104.504 266.491C105.089 268.679 106.072 270.773 107.465 272.657L105.37 275.5L110.471 280.063L113.069 277.664C115.093 278.834 117.293 279.583 119.527 279.923L120.054 283.433L126.887 283.046L127.015 279.501C129.203 278.916 131.297 277.934 133.181 276.541L136.024 278.647L136.036 278.636ZM116.111 268.644C112.297 265.239 111.969 259.389 115.385 255.575C118.79 251.761 124.64 251.433 128.454 254.849C132.269 258.254 132.596 264.104 129.18 267.918C125.775 271.733 119.925 272.06 116.111 268.644Z" fill="#F0F0F0"/>
<path d="M103.463 82.5201L108.763 76.5882L105.967 73.5696C107.336 71.2062 108.202 68.6556 108.588 66.0465L112.671 65.4264L112.226 57.4821L108.096 57.33C107.418 54.7794 106.271 52.3458 104.657 50.1462L107.102 46.8351L101.17 41.535L98.1514 44.3313C95.788 42.9624 93.2374 42.0966 90.6283 41.7105L90.0082 37.6272L82.0639 38.0718L81.9118 42.2019C79.3612 42.8805 76.9276 44.0271 74.728 45.6417L71.4169 43.1964L66.1051 49.1283L68.9014 52.1469C67.5325 54.5103 66.6667 57.0609 66.2806 59.67L62.1973 60.2901L62.6419 68.2344L66.772 68.3865C67.4506 70.9371 68.5972 73.3707 70.2118 75.5703L67.7665 78.8814L73.6984 84.1815L76.717 81.3852C79.0687 82.7541 81.631 83.6199 84.2284 84.006L84.8485 88.0893L92.7928 87.6447L92.9449 83.5146C95.4955 82.836 97.9291 81.6894 100.129 80.0748L103.44 82.5201H103.463ZM80.2621 70.8903C75.8278 66.924 75.4417 60.1146 79.408 55.6803C83.3743 51.246 90.1837 50.8599 94.618 54.8262C99.0523 58.7925 99.4384 65.6019 95.4721 70.0362C91.5058 74.4705 84.6964 74.8566 80.2621 70.8903Z" fill="#F0F0F0"/>
<path d="M175.921 29.601L178.226 27.027L177.009 25.7166C177.606 24.6987 177.98 23.5872 178.144 22.4523L179.911 22.1832L179.724 18.7434L177.934 18.6732C177.641 17.5734 177.138 16.5087 176.436 15.561L177.501 14.1219L174.927 11.817L173.616 13.0338C172.598 12.4371 171.487 12.0627 170.352 11.8989L170.083 10.1322L166.643 10.3194L166.573 12.1095C165.473 12.402 164.408 12.9051 163.461 13.6071L162.022 12.5424L159.717 15.1164L160.934 16.4268C160.337 17.4447 159.962 18.5562 159.799 19.6911L158.032 19.9602L158.219 23.4L160.009 23.4702C160.302 24.57 160.805 25.6347 161.507 26.5824L160.442 28.0215L163.016 30.3264L164.327 29.1096C165.344 29.7063 166.456 30.0807 167.579 30.2445L167.848 32.0112L171.288 31.824L171.358 30.0339C172.458 29.7414 173.523 29.2383 174.47 28.5363L175.91 29.601H175.921ZM165.859 24.5583C163.94 22.8384 163.777 19.89 165.497 17.9595C167.216 16.0407 170.165 15.8769 172.095 17.5851C174.014 19.305 174.178 22.2534 172.458 24.1839C170.738 26.1027 167.79 26.2665 165.859 24.5466V24.5583Z" fill="#F0F0F0"/>
<path d="M240.014 96.3378C241.909 97.1451 243.91 97.5429 245.899 97.5897L246.753 100.597L252.673 99.5085L252.404 96.3963C254.253 95.6475 255.973 94.5594 257.47 93.132L260.185 94.653L263.601 89.6922L261.214 87.6915C262.022 85.7961 262.419 83.7954 262.466 81.8064L265.473 80.9523L264.385 75.0321L261.273 75.3012C260.524 73.4526 259.436 71.7327 258.009 70.2351L259.53 67.5207L254.569 64.1043L252.568 66.4911C250.673 65.6838 248.672 65.286 246.683 65.2392L245.829 62.2323L239.909 63.3204L240.178 66.4326C238.329 67.1814 236.609 68.2695 235.112 69.6969L232.397 68.1759L228.981 73.1367L231.368 75.1374C230.572 77.0328 230.163 79.0335 230.116 81.0342L227.109 81.8883L228.197 87.8085L231.309 87.5394C232.058 89.388 233.146 91.1079 234.573 92.6055L233.052 95.3199L238.013 98.7363L240.014 96.3495V96.3378ZM241.664 88.1244C237.955 85.5738 237.03 80.496 239.581 76.7871C242.132 73.0782 247.209 72.1539 250.918 74.7045C254.627 77.2551 255.552 82.3329 253.001 86.0418C250.45 89.7507 245.373 90.675 241.664 88.1244Z" fill="#F0F0F0"/>
<path d="M292.5 435.954C417.786 435.954 519.351 430.024 519.351 422.709C519.351 415.395 417.786 409.465 292.5 409.465C167.213 409.465 65.6487 415.395 65.6487 422.709C65.6487 430.024 167.213 435.954 292.5 435.954Z" fill="#F5F5F5"/>
<path d="M258.184 222.288C257.119 222.089 256.16 221.516 255.47 220.674L249.456 213.431C248.274 212.039 248.017 210.074 248.812 208.424L252.135 201.205C255.388 194.185 260.103 187.949 265.976 182.918L267.977 181.233C271.241 178.413 276.179 178.776 278.998 182.029C279.057 182.099 279.115 182.157 279.162 182.228L285.281 189.715C287.68 192.699 287.563 196.981 285 199.836L277.512 208.354C277.512 208.354 267.953 224.09 258.184 222.288Z" fill="#FDDDBA"/>
<path d="M324.266 255.013C320.603 248.11 314.941 244.121 307.09 243.828C301.579 243.617 296.981 246.098 292.886 249.678C284.649 256.874 276.26 263.882 266.83 269.498C264.022 271.171 261.132 272.669 258.125 273.956C257.529 274.213 256.967 274.564 256.429 274.342C254.3 273.476 255.657 265.555 256.289 261.975C257.306 256.207 260.009 244.05 268.398 221.235C261.331 217.48 254.264 213.736 247.198 209.98C236.796 225.518 231.169 239.546 228.021 249.233C222.99 264.713 222.499 274.658 223.599 282.555C225.167 293.752 229.8 299.567 231.251 301.275C236.141 307.031 242.541 310.05 249.877 311.138C256.92 312.191 263.753 310.916 270.481 308.903C283.994 304.855 295.764 297.601 306.774 288.978C311.29 285.445 315.596 281.666 319.714 277.676C323.084 274.412 325.295 270.563 326.032 265.894C326.067 265.637 326.184 265.391 326.255 265.134C326.255 263.894 326.255 262.665 326.255 261.425C325.693 259.26 325.319 257.026 324.254 255.013H324.266Z" fill="#E4322B"/>
<path opacity="0.2" d="M295.472 254.545C293.284 264.069 289.961 275.137 284.825 287.024C281.479 294.746 277.898 301.614 274.365 307.616C276.354 306.891 279.057 305.85 282.181 304.411C289.048 301.252 293.881 298.093 297.472 295.729C301.088 293.342 305.545 290.172 310.424 286.112C305.44 275.593 300.456 265.075 295.472 254.557V254.545Z" fill="black"/>
<path opacity="0.2" d="M261.238 187.504C261.612 190.254 262.373 193.635 263.905 197.309C267.006 204.773 271.721 209.641 274.751 212.273C275.64 211.021 276.588 209.746 277.594 208.459C279.642 205.838 281.689 203.463 283.702 201.322C278.87 194.337 274.038 187.352 269.205 180.355C267.521 181.584 265.731 183.035 263.917 184.766C262.946 185.691 262.057 186.603 261.238 187.492V187.504Z" fill="black"/>
<path d="M466.07 386.112C450.813 348.192 441.336 321.902 430.466 251.702C427.787 234.445 411.711 223.154 395.285 224.617C390.605 225.038 374.985 223.096 347.818 229.636C327.986 234.41 293.155 249.912 293.155 249.912C293.155 249.912 307.769 322.148 350.672 386.112H466.081H466.07Z" fill="#E4322B"/>
<path opacity="0.7" d="M466.07 386.112C450.813 348.192 441.336 321.902 430.466 251.702C427.787 234.445 411.711 223.154 395.285 224.617C390.605 225.038 374.985 223.096 347.818 229.636C327.986 234.41 293.155 249.912 293.155 249.912C293.155 249.912 307.769 322.148 350.672 386.112H466.081H466.07Z" fill="white"/>
<path d="M390.593 325.014C394.969 335.603 401.848 348.613 408.786 360.84C414.121 370.223 419.492 379.139 423.786 386.1H468.667L451.456 344.975L448.964 339.008L445.758 322.511L431.344 248.496C428.431 233.52 414.075 221.82 399.73 222.733L380.308 223.973C380.308 223.973 380.25 224.254 380.133 224.815C378.764 231.461 370.691 276.366 390.406 324.558C390.464 324.71 390.534 324.862 390.593 325.014Z" fill="#E4322B"/>
<path d="M334.316 367.333C339.3 378.214 342.682 385.246 342.682 385.246C342.682 385.246 342.635 385.55 342.541 386.112H359.834C359.799 380.297 359.307 373.85 358.441 367.087C356.885 355.001 354.147 341.979 350.743 330.092C349.526 325.833 348.239 321.727 346.882 317.854C335.568 285.667 329.905 239.171 329.449 235.322C329.425 235.147 329.414 235.065 329.414 235.065C329.414 235.065 294.091 245.349 293.155 249.9C290.652 262.021 305.218 300.374 319.2 333.181C324.675 346.063 330.081 358.102 334.316 367.333Z" fill="#E4322B"/>
<path d="M329.718 230.233C334.889 235.86 336.925 240.154 337.522 243.266C338.399 247.829 336.2 249.865 336.2 249.865C338.937 261.05 354.03 258.804 354.03 258.804C370.984 239.242 369.428 225.904 369.428 225.904C358.64 225.635 351.258 218.778 346.507 211.735C341.418 204.177 339.335 196.42 339.335 196.42L320.147 221.317C324.16 224.582 327.273 227.577 329.718 230.233Z" fill="#FDDDBA"/>
<path opacity="0.2" d="M320.147 221.317C324.16 224.582 327.273 227.577 329.718 230.233C334.889 235.86 336.925 240.154 337.522 243.266C345.794 233.474 347.291 221.633 346.507 211.735C341.418 204.177 339.335 196.42 339.335 196.42L320.147 221.317Z" fill="black"/>
<path d="M326.079 131.005C326.103 128.326 326.512 120.627 332.128 114.461C339.394 106.482 351.842 104.961 360.278 108.588C370.972 113.186 368.573 123.224 382.777 144.834C393.951 161.823 399.087 161.179 402.819 173.113C403.849 176.389 410.027 196.209 398.221 209.196C391.786 216.274 382.953 217.936 378.975 218.416C380.905 214.917 382.988 209.758 381.841 204.212C380.402 197.262 374.739 193.787 370.562 190.195C351.433 173.733 360.091 151.971 340.973 137.803C338.107 135.673 333.333 132.772 326.079 131.028V131.005Z" fill="#263238"/>
<path d="M273.265 198.888C271.604 196.537 258.406 177.196 265.695 155.785C270.703 141.067 282.649 133.368 287.364 130.326C292.067 127.296 301.053 121.411 312.027 121.481C339.897 121.657 361.074 155.575 359.857 176.015C359.19 187.27 356.406 201.193 346.402 208.915C342.377 212.027 340.833 199.965 340.833 199.965C340.833 199.965 301.965 218.205 273.277 198.877L273.265 198.888Z" fill="#263238"/>
<path d="M338.914 156.055C346.671 181.947 350.497 192.711 342.88 210.986C331.426 238.481 298.947 243.851 283.854 221.165C270.27 200.749 259.857 161.846 280.145 141.488C300.129 121.434 331.157 130.162 338.914 156.055Z" fill="#FDDDBA"/>
<path d="M309.337 157.505C329.624 168.117 312.109 199.04 337.803 185.936C363.484 172.832 335.896 140.739 316.497 139.452C297.098 138.165 309.337 157.494 309.337 157.494V157.505Z" fill="#263238"/>
<path d="M303.381 178.834C304.188 180.952 303.791 183.163 302.48 183.772C301.17 184.38 299.45 183.152 298.643 181.034C297.835 178.916 298.233 176.705 299.544 176.097C300.854 175.488 302.574 176.717 303.381 178.834Z" fill="#263238"/>
<path d="M278.881 190.605C279.689 192.722 279.291 194.934 277.981 195.542C276.67 196.151 274.95 194.922 274.143 192.804C273.336 190.687 273.733 188.475 275.044 187.867C276.354 187.259 278.074 188.487 278.881 190.605Z" fill="#263238"/>
<path d="M275.675 187.715L270.305 188.475C270.305 188.475 274.295 191.307 275.675 187.715Z" fill="#263238"/>
<path d="M286.919 190.885C286.919 190.885 286.685 201.591 284.439 207.663C288.042 209.161 292.172 206.014 292.172 206.014L286.919 190.897V190.885Z" fill="#ECC29E"/>
<path d="M309.921 206.751C311.045 206.388 312.25 206.095 313.56 205.908C313.911 205.861 314.227 206.119 314.25 206.482C314.274 206.844 314.016 207.184 313.654 207.242C304.071 208.588 300.07 216.157 300.035 216.239C299.859 216.579 299.473 216.719 299.157 216.555C298.842 216.391 298.736 215.994 298.9 215.666C299.052 215.374 302.27 209.266 309.91 206.751H309.921Z" fill="#263238"/>
<path d="M352.966 177.629C353.048 183.713 350.626 188.744 347.478 191.599C342.74 195.893 337.1 190.827 335.685 183.596C334.409 177.091 335.334 167.006 341.406 165.602C347.385 164.221 352.884 170.668 352.977 177.629H352.966Z" fill="#FDDDBA"/>
<path d="M265.906 181.982C266.07 181.678 266.351 181.444 266.702 181.362C272.212 180.086 273.722 175.477 273.733 175.418C273.956 174.728 274.669 174.377 275.348 174.634C276.015 174.903 276.389 175.675 276.167 176.377C276.085 176.623 274.201 182.415 267.368 183.994C266.69 184.146 265.988 183.69 265.801 182.953C265.719 182.602 265.766 182.251 265.918 181.97L265.906 181.982Z" fill="#263238"/>
<path d="M302.059 166.491C302.363 166.596 302.632 166.819 302.773 167.123C303.065 167.755 302.761 168.527 302.071 168.843C295.226 172.002 289.985 169.077 289.762 168.948C289.142 168.585 288.967 167.801 289.376 167.193C289.786 166.585 290.616 166.374 291.248 166.737C291.447 166.854 295.554 169.065 300.994 166.55C301.345 166.386 301.731 166.374 302.059 166.491Z" fill="#263238"/>
<path d="M300.164 175.933L294.793 176.693C294.793 176.693 298.783 179.525 300.164 175.933Z" fill="#263238"/>
<path d="M288.253 150.076C302.937 164.338 318.615 170.212 326.688 169.393C333.286 168.714 337.744 166.608 337.744 166.608C340.95 165.087 345.653 162.092 345.653 162.092C344.963 158.605 343.617 154.054 340.821 149.315C333.977 137.709 323.166 132.924 318.977 131.321C315.35 129.94 304.095 126.29 292.687 129.905C276.436 135.053 264.713 153.469 264.28 175.664C265.204 174.927 266.234 174.178 267.38 173.452C271.054 171.148 274.623 169.919 277.477 169.24C277.711 167.181 278.238 164.607 279.373 161.834C281.853 155.739 285.901 151.948 288.276 150.064L288.253 150.076Z" fill="#263238"/>
<path opacity="0.2" d="M319.983 200.023C319.223 196.747 318.556 192.652 318.451 187.937C318.31 181.83 319.153 176.647 320.089 172.774C320.65 175.617 321.2 178.46 321.762 181.291C330.069 183.222 338.388 185.164 346.695 187.095C348.426 182.204 350.146 177.302 351.878 172.411C352.053 172.867 352.334 173.675 352.556 174.704C352.638 175.079 354.37 183.526 348.964 190.031C348.473 190.616 347.841 191.295 347.022 191.997C346.999 192.734 346.964 193.483 346.917 194.243C346.765 196.735 346.507 199.087 346.168 201.31C337.44 200.889 328.712 200.456 319.983 200.035V200.023Z" fill="black"/>
<path d="M325.775 199.894C326.699 200.62 327.846 200.994 329.016 200.947L339.183 200.678C341.16 200.643 342.939 199.45 343.711 197.636L347.209 189.786C350.591 182.146 352.299 173.874 352.193 165.52L352.135 162.688C352.1 158.032 348.297 154.276 343.629 154.311C343.535 154.311 343.442 154.311 343.348 154.311L332.9 154.674C328.758 154.849 325.365 157.997 324.874 162.115L323.294 174.271C323.294 174.271 317.327 193.249 325.763 199.906L325.775 199.894Z" fill="#FDDDBA"/>
<path opacity="0.2" d="M416.087 227.705C416.988 228.162 418.252 228.887 419.586 229.999C427.425 236.551 427.085 247.584 427.05 248.215C426.606 257.845 419.118 264.116 412.788 269.428C401.041 279.279 388.031 282.754 379.396 284.088C391.622 265.297 403.861 246.496 416.087 227.705Z" fill="black"/>
<path opacity="0.2" d="M338.551 288.99C335.275 288.335 329.671 286.72 324.511 282.274C318.053 276.705 315.97 269.849 314.204 264.057C311.419 254.885 311.536 246.566 312.285 240.552C314.929 239.663 317.561 238.785 320.206 237.896C326.325 254.931 332.432 271.967 338.551 289.002V288.99Z" fill="black"/>
<path d="M416.45 227.986C410.6 223.306 403.72 223.856 401.193 224.067C391.061 224.886 383.374 231.648 375.617 238.54C371.803 241.921 367.766 245.045 364.034 248.52C361.811 250.579 357.634 253.387 352.03 254.943C351.62 255.06 351.246 254.99 351.246 254.99C351.058 254.955 350.871 254.896 350.696 254.803C350.275 254.569 349.97 254.194 349.83 253.726C348.976 250.719 348.25 247.642 347.654 244.565C345.782 234.749 345.747 226.816 345.723 217.62C345.7 211.314 345.899 204.902 346.32 198.537L346.355 197.976L320.767 195.378L320.662 195.905C317.515 212.191 315.771 227.939 315.479 242.705C315.327 250.403 315.514 259.459 319.749 269.65C321.177 273.066 322.639 276.611 325.822 280.238C331.941 287.223 341.032 291.108 350.813 291.108C352.462 291.108 353.925 291.014 355.809 290.768C371.978 288.697 385.924 281.186 391.037 278.261C408.26 268.41 415.853 258.769 418.146 255.68C421.27 251.491 423.388 247.619 423.446 242.763C423.563 233.871 416.719 228.208 416.426 227.974L416.45 227.986Z" fill="#E4322B"/>
<path d="M477.629 61.2027C477.629 55.1655 474.47 49.7016 469.392 45.7821C469.556 44.9982 469.65 44.1909 469.65 43.3602C469.65 35.3106 461.472 28.7703 451.293 28.5831C448.215 20.8026 438.984 15.1515 428.08 15.1515C419.387 15.1515 411.758 18.7434 407.464 24.1488C406.4 23.9967 405.3 23.9148 404.177 23.9148C393.787 23.9148 385.375 30.537 385.375 38.7036C385.375 40.1193 385.632 41.4765 386.1 42.7635C379.49 46.2384 375.125 52.1586 375.125 58.8861C375.125 65.6136 379.174 71.1009 385.386 74.6109C385.386 74.6811 385.386 74.7513 385.386 74.8215C385.386 82.7541 393.319 89.2125 403.276 89.5869C408.775 94.9572 417.187 98.3853 426.629 98.3853C433.251 98.3853 439.382 96.6888 444.343 93.8223C445.173 93.9159 446.027 93.9627 446.893 93.9627C457.283 93.9627 465.695 87.3405 465.695 79.1739C465.695 79.1271 465.695 79.0686 465.695 79.0218C472.914 75.1257 477.653 68.5971 477.653 61.191L477.629 61.2027Z" fill="#E4322B"/>
<path d="M353.246 79.6653C353.246 81.4554 351.175 82.9062 348.613 82.9062C346.051 82.9062 343.98 81.4554 343.98 79.6653C343.98 77.8752 346.051 76.4244 348.613 76.4244C351.175 76.4244 353.246 77.8752 353.246 79.6653Z" fill="#E4322B"/>
<path d="M369.1 67.8366C369.1 70.5627 365.929 72.774 362.01 72.774C358.09 72.774 354.919 70.5627 354.919 67.8366C354.919 65.1105 358.09 62.8992 362.01 62.8992C365.929 62.8992 369.1 65.1105 369.1 67.8366Z" fill="#E4322B"/>
<path opacity="0.6" d="M477.629 61.2027C477.629 55.1655 474.47 49.7016 469.392 45.7821C469.556 44.9982 469.65 44.1909 469.65 43.3602C469.65 35.3106 461.472 28.7703 451.293 28.5831C448.215 20.8026 438.984 15.1515 428.08 15.1515C419.387 15.1515 411.758 18.7434 407.464 24.1488C406.4 23.9967 405.3 23.9148 404.177 23.9148C393.787 23.9148 385.375 30.537 385.375 38.7036C385.375 40.1193 385.632 41.4765 386.1 42.7635C379.49 46.2384 375.125 52.1586 375.125 58.8861C375.125 65.6136 379.174 71.1009 385.386 74.6109C385.386 74.6811 385.386 74.7513 385.386 74.8215C385.386 82.7541 393.319 89.2125 403.276 89.5869C408.775 94.9572 417.187 98.3853 426.629 98.3853C433.251 98.3853 439.382 96.6888 444.343 93.8223C445.173 93.9159 446.027 93.9627 446.893 93.9627C457.283 93.9627 465.695 87.3405 465.695 79.1739C465.695 79.1271 465.695 79.0686 465.695 79.0218C472.914 75.1257 477.653 68.5971 477.653 61.191L477.629 61.2027Z" fill="white"/>
<path opacity="0.6" d="M353.246 79.6653C353.246 81.4554 351.175 82.9062 348.613 82.9062C346.051 82.9062 343.98 81.4554 343.98 79.6653C343.98 77.8752 346.051 76.4244 348.613 76.4244C351.175 76.4244 353.246 77.8752 353.246 79.6653Z" fill="white"/>
<path opacity="0.6" d="M369.1 67.8366C369.1 70.5627 365.929 72.774 362.01 72.774C358.09 72.774 354.919 70.5627 354.919 67.8366C354.919 65.1105 358.09 62.8992 362.01 62.8992C365.929 62.8992 369.1 65.1105 369.1 67.8366Z" fill="white"/>
<path d="M413.864 40.8564H394.793V50.0058H413.864V40.8564Z" fill="#E4322B"/>
<path opacity="0.8" d="M413.864 40.8564H394.793V50.0058H413.864V40.8564Z" fill="white"/>
<path d="M435.217 40.8564H416.146V50.0058H435.217V40.8564Z" fill="#E4322B"/>
<path opacity="0.8" d="M435.217 40.8564H416.146V50.0058H435.217V40.8564Z" fill="white"/>
<path d="M456.581 40.8564H437.51V50.0058H456.581V40.8564Z" fill="#E4322B"/>
<path opacity="0.8" d="M456.581 40.8564H437.51V50.0058H456.581V40.8564Z" fill="white"/>
<path d="M403.849 51.7725H384.778V60.9219H403.849V51.7725Z" fill="#E4322B"/>
<path opacity="0.8" d="M403.849 51.7725H384.778V60.9219H403.849V51.7725Z" fill="white"/>
<path d="M425.19 51.7725H406.119V60.9219H425.19V51.7725Z" fill="#E4322B"/>
<path opacity="0.8" d="M425.19 51.7725H406.119V60.9219H425.19V51.7725Z" fill="white"/>
<path d="M446.566 51.7725H427.495V60.9219H446.566V51.7725Z" fill="#E4322B"/>
<path opacity="0.8" d="M446.566 51.7725H427.495V60.9219H446.566V51.7725Z" fill="white"/>
<path d="M468.023 51.7725H448.952V60.9219H468.023V51.7725Z" fill="#E4322B"/>
<path opacity="0.8" d="M468.023 51.7725H448.952V60.9219H468.023V51.7725Z" fill="white"/>
<path d="M413.864 63.2619H394.793V72.4113H413.864V63.2619Z" fill="#E4322B"/>
<path opacity="0.8" d="M413.864 63.2619H394.793V72.4113H413.864V63.2619Z" fill="white"/>
<path d="M435.217 63.2619H416.146V72.4113H435.217V63.2619Z" fill="#E4322B"/>
<path opacity="0.8" d="M435.217 63.2619H416.146V72.4113H435.217V63.2619Z" fill="white"/>
<path d="M456.581 63.2619H437.51V72.4113H456.581V63.2619Z" fill="#E4322B"/>
<path opacity="0.8" d="M456.581 63.2619H437.51V72.4113H456.581V63.2619Z" fill="white"/>
<path d="M424.043 29.9286H404.972V39.078H424.043V29.9286Z" fill="#E4322B"/>
<path opacity="0.8" d="M424.043 29.9286H404.972V39.078H424.043V29.9286Z" fill="white"/>
<path d="M445.419 29.9286H426.348V39.078H445.419V29.9286Z" fill="#E4322B"/>
<path opacity="0.8" d="M445.419 29.9286H426.348V39.078H445.419V29.9286Z" fill="white"/>
<path d="M425.19 74.1897H406.119V83.3391H425.19V74.1897Z" fill="#E4322B"/>
<path opacity="0.8" d="M425.19 74.1897H406.119V83.3391H425.19V74.1897Z" fill="white"/>
<path d="M446.566 74.1897H427.495V83.3391H446.566V74.1897Z" fill="#E4322B"/>
<path opacity="0.8" d="M446.566 74.1897H427.495V83.3391H446.566V74.1897Z" fill="white"/>
<path d="M432.245 48.2625C432.139 44.5536 428.957 42.0966 423.973 42.1668C419.176 42.237 415.724 44.1324 413.548 47.4084L407.148 43.3368C410.635 38.259 416.391 35.1351 424.488 35.0181C434.023 34.8777 440.493 39.2184 440.704 46.8234C441.008 57.5991 429.952 58.7574 430.162 66.5613L421.925 66.6783C421.656 56.8971 432.432 54.8847 432.245 48.2742V48.2625ZM421.188 77.337C421.106 74.4939 423.189 72.2124 426.231 72.1656C429.214 72.1188 431.414 74.3418 431.496 77.1849C431.578 80.028 429.495 82.368 426.512 82.4148C423.47 82.4616 421.258 80.1801 421.177 77.3253L421.188 77.337Z" fill="#E4322B"/>
<path d="M504.059 395.086H82.6604V422.323H504.059V395.086Z" fill="#263238"/>
<path opacity="0.3" d="M504.059 395.086H82.6604V422.323H504.059V395.086Z" fill="white"/>
<path d="M505.627 386.006H81.0809C78.6836 386.006 76.7402 387.95 76.7402 390.347V399.824C76.7402 402.221 78.6836 404.165 81.0809 404.165H505.627C508.024 404.165 509.968 402.221 509.968 399.824V390.347C509.968 387.95 508.024 386.006 505.627 386.006Z" fill="#263238"/>
<path opacity="0.4" d="M505.627 386.006H81.0809C78.6836 386.006 76.7402 387.95 76.7402 390.347V399.824C76.7402 402.221 78.6836 404.165 81.0809 404.165H505.627C508.024 404.165 509.968 402.221 509.968 399.824V390.347C509.968 387.95 508.024 386.006 505.627 386.006Z" fill="white"/>
<path d="M187.048 366.011H104.2V383.573H187.048V366.011Z" fill="#263238"/>
<path opacity="0.8" d="M187.048 366.011H104.2V383.573H187.048V366.011Z" fill="white"/>
<path opacity="0.5" d="M185.878 369.474H104.2V370.27H185.878V369.474Z" fill="white"/>
<path opacity="0.5" d="M185.878 374.002H104.2V374.798H185.878V374.002Z" fill="white"/>
<path opacity="0.5" d="M185.878 378.741H104.2V379.536H185.878V378.741Z" fill="white"/>
<path d="M186.346 363.589H102.281C101.884 363.589 101.568 363.917 101.568 364.303V366.514C101.568 366.912 101.895 367.228 102.281 367.228H182.649C183.444 367.228 184.088 367.871 184.088 368.667V381.151C184.088 381.946 183.444 382.59 182.649 382.59H102.188C101.837 382.59 101.556 382.871 101.556 383.222V385.351C101.556 385.702 101.837 385.983 102.188 385.983H186.428C187.738 385.983 188.803 384.918 188.803 383.608V366.046C188.803 364.689 187.703 363.578 186.334 363.578L186.346 363.589Z" fill="#E4322B"/>
<path d="M187.048 343.547H104.2V361.109H187.048V343.547Z" fill="#263238"/>
<path opacity="0.9" d="M187.048 343.547H104.2V361.109H187.048V343.547Z" fill="white"/>
<path opacity="0.7" d="M185.878 346.273H104.2V347.069H185.878V346.273Z" fill="white"/>
<path opacity="0.7" d="M185.878 349.514H104.2V350.31H185.878V349.514Z" fill="white"/>
<path opacity="0.7" d="M185.878 353.094H104.2V353.89H185.878V353.094Z" fill="white"/>
<path opacity="0.7" d="M185.878 356.335H104.2V357.131H185.878V356.335Z" fill="white"/>
<path d="M186.346 341.125H102.281C101.884 341.125 101.568 341.453 101.568 341.839V344.05C101.568 344.448 101.895 344.764 102.281 344.764H182.649C183.444 344.764 184.088 345.407 184.088 346.203V358.687C184.088 359.482 183.444 360.126 182.649 360.126H102.188C101.837 360.126 101.556 360.407 101.556 360.758V362.887C101.556 363.238 101.837 363.519 102.188 363.519H186.428C187.738 363.519 188.803 362.454 188.803 361.144V343.582C188.803 342.225 187.703 341.113 186.334 341.113L186.346 341.125Z" fill="#E4322B"/>
<path opacity="0.3" d="M186.346 341.125H102.281C101.884 341.125 101.568 341.453 101.568 341.839V344.05C101.568 344.448 101.895 344.764 102.281 344.764H182.649C183.444 344.764 184.088 345.407 184.088 346.203V358.687C184.088 359.482 183.444 360.126 182.649 360.126H102.188C101.837 360.126 101.556 360.407 101.556 360.758V362.887C101.556 363.238 101.837 363.519 102.188 363.519H186.428C187.738 363.519 188.803 362.454 188.803 361.144V343.582C188.803 342.225 187.703 341.113 186.334 341.113L186.346 341.125Z" fill="white"/>
<path d="M187.048 327.659H104.2V338.703H187.048V327.659Z" fill="#263238"/>
<path opacity="0.8" d="M187.048 327.659H104.2V338.703H187.048V327.659Z" fill="white"/>
<path opacity="0.5" d="M185.878 329.998H104.2V330.794H185.878V329.998Z" fill="white"/>
<path opacity="0.5" d="M185.878 334.573H104.2V335.369H185.878V334.573Z" fill="white"/>
<path d="M101.556 324.652V327.448C101.556 327.682 101.743 327.881 101.989 327.881H183.666C183.9 327.881 184.099 328.068 184.099 328.314V336.597C184.099 337.229 183.585 337.744 182.953 337.744H102.001C101.767 337.744 101.568 337.931 101.568 338.177V340.716C101.568 340.95 101.755 341.149 102.001 341.149H186.732C187.89 341.149 188.826 340.213 188.826 339.054V324.663C188.826 324.429 188.639 324.23 188.393 324.23H102.001C101.767 324.23 101.568 324.418 101.568 324.663L101.556 324.652Z" fill="#E4322B"/>
<path d="M273.745 386.053L325.716 386.077C326.138 386.077 326.465 385.679 326.372 385.269C325.833 382.847 325.307 380.425 324.769 377.992C324.698 377.688 324.429 377.465 324.113 377.465C305.592 377.465 287.06 377.454 268.539 377.442C268 377.442 267.684 378.062 268 378.495C269.732 380.917 271.475 383.339 273.207 385.772C273.336 385.948 273.534 386.053 273.745 386.053Z" fill="#E4322B"/>
<path opacity="0.2" d="M273.745 386.053L325.74 386.077C326.161 386.077 326.477 385.69 326.383 385.281C325.833 382.836 325.284 380.402 324.745 377.957C324.675 377.653 324.418 377.442 324.102 377.442H268.527C267.989 377.442 267.684 378.05 267.989 378.483C269.732 380.917 271.475 383.35 273.207 385.784C273.336 385.96 273.523 386.053 273.745 386.053Z" fill="black"/>
<path d="M250.661 297.121H152.685C152.17 297.121 151.656 297.238 151.199 297.461L146.94 299.508C154.99 328.337 163.051 357.166 171.101 386.006C203.802 386.1 236.504 386.182 269.205 386.275C271.148 386.205 272.751 386.135 274.693 386.065C267.099 356.838 259.845 327.6 252.24 298.373C252.053 297.648 251.398 297.145 250.649 297.145L250.661 297.121Z" fill="#E4322B"/>
<path opacity="0.2" d="M269.205 386.264C236.504 386.17 203.802 386.088 171.101 385.995C163.051 357.166 154.99 328.337 146.94 299.497H246.975L269.205 386.252V386.264Z" fill="black"/>
<path opacity="0.2" d="M150.907 297.613L146.952 299.52H246.987L250.953 297.613C251.199 297.496 251.105 297.133 250.848 297.133H153.036C152.299 297.133 151.585 297.297 150.918 297.613H150.907Z" fill="white"/>
<path d="M212.964 339.312C213.478 344.846 209.418 349.748 203.884 350.263C198.35 350.778 193.448 346.718 192.933 341.184C192.418 335.65 196.478 330.747 202.012 330.232C207.546 329.718 212.449 333.778 212.964 339.312Z" fill="#E4322B"/>
<path opacity="0.4" d="M252.24 298.315C259.728 327.565 267.216 356.803 274.693 386.053L269.205 386.264L246.975 299.508L250.825 297.66C251.398 297.379 252.077 297.706 252.24 298.315Z" fill="black"/>
</g>
<defs>
<clipPath id="clip0_39_794">
<rect width="585" height="435.954" fill="white"/>
</clipPath>
</defs>
</svg>
